<svg xmlns="http://www.w3.org/2000/svg" viewBox="0 0 512 512" fill="none">
  <circle cx="256" cy="256" r="256" fill="#000000" />
  <g stroke="#ffffff" stroke-linecap="round" stroke-linejoin="round">
    <path d="M 176.05,255.37 L 175.58,254.78 L 175.12,254.22 L 174.65,253.68 L 174.18,253.16 L 173.70,252.68 L 173.23,252.22 L 172.76,251.79 L 172.29,251.38 L 171.83,251.01 L 171.36,250.66 L 170.90,250.35 L 170.44,250.06 L 169.98,249.80 L 169.53,249.58 L 169.09,249.39 L 168.65,249.22 L 168.21,249.09 L 167.79,249.00 L 167.37,248.93 L 166.95,248.90 L 166.55,248.90 L 166.16,248.94 L 165.77,249.01 L 165.40,249.11 L 165.04,249.25 L 164.69,249.43 L 164.35,249.64 L 164.02,249.89 L 163.71,250.17 L 163.42,250.49 L 163.13,250.84 L 162.87,251.24 L 162.62,251.66 L 162.38,252.13 L 162.17,252.63 L 161.97,253.17 L 161.79,253.75 L 161.63,254.36 L 161.49,255.01 L 161.37,255.70 L 161.28,256.42 L 161.20,257.18 L 161.15,257.97 L 161.12,258.80 L 161.11,259.67 L 161.13,260.56 L 161.17,261.50 L 161.23,262.46 L 161.32,263.45 L 161.43,264.48 L 161.57,265.53 L 161.74,266.61 L 161.93,267.72 L 162.14,268.86 L 162.39,270.01 L 162.65,271.19 L 162.95,272.39 L 163.26,273.61 L 163.61,274.84 L 163.97,276.09 L 164.36,277.35 L 164.78,278.62 L 165.22,279.90 L 165.68,281.18 L 166.16,282.46 L 166.66,283.74 L 167.19,285.01 L 167.73,286.28 L 168.29,287.54 L 168.87,288.78 L 169.46,290.01 L 170.06,291.22 L 170.68,292.40 L 171.31,293.56 L 171.96,294.69 L 172.60,295.79 L 173.26,296.85 L 173.92,297.87 L 174.59,298.85 L 175.26,299.79 L 175.92,300.68 L 176.59,301.52 L 177.25,302.31 L 177.91,303.04 L 178.57,303.71 L 179.21,304.33 L 179.85,304.88 L 180.48,305.38 L 181.09,305.80 L 181.70,306.17 L 182.28,306.47 L 182.86,306.70 L 183.41,306.86 L 183.95,306.96 L 184.46,306.98 L 184.96,306.95 L 185.44,306.84 L 185.89,306.67 L 186.33,306.43 L 186.74,306.13 L 187.12,305.77 L 187.48,305.35 L 187.82,304.86 L 188.14,304.32 L 188.43,303.73 L 188.69,303.07 L 188.93,302.37 L 189.15,301.62 L 189.34,300.82 L 189.50,299.98 L 189.64,299.10 L 189.76,298.17 L 189.85,297.21 L 189.92,296.22 L 189.96,295.19 L 189.98,294.14 L 189.98,293.05 L 189.95,291.95 L 189.91,290.82 L 189.84,289.68 L 189.75,288.52 L 189.63,287.34 L 189.50,286.15 L 189.35,284.96 L 189.17,283.75 L 188.98,282.54 L 188.77,281.33 L 188.54,280.12 L 188.29,278.90 L 188.03,277.69 L 187.75,276.48 L 187.45,275.28 L 187.13,274.09 L 186.80,272.90 L 186.46,271.73 L 186.10,270.56 L 185.73,269.41 L 185.34,268.27 L 184.94,267.15 L 184.53,266.04 L 184.11,264.95 L 183.67,263.88 L 183.22,262.82 L 182.77,261.79 L 182.30,260.77 L 181.82,259.78 L 181.34,258.81 L 180.84,257.86 L 180.34,256.94 L 179.83,256.04 L 179.32,255.16 L 178.79,254.31 L 178.27,253.48 L 177.73,252.68 L 177.19,251.91 L 176.65,251.17 L 176.11,250.45 L 175.56,249.76 L 175.00,249.10 L 174.45,248.47 L 173.90,247.86 L 173.34,247.29 L 172.78,246.75 L 172.23,246.24 L 171.67,245.76 L 171.12,245.31 L 170.57,244.90 L 170.02,244.51 L 169.47,244.16 L 168.93,243.85 L 168.39,243.57 L 167.86,243.32 L 167.33,243.11 L 166.81,242.93 L 166.30,242.79 L 165.79,242.69 L 165.29,242.62 L 164.80,242.59 L 164.33,242.60 L 163.86,242.65 L 163.40,242.74 L 162.96,242.86 L 162.52,243.03 L 162.10,243.23 L 161.70,243.48 L 161.31,243.77 L 160.93,244.10 L 160.58,244.47 L 160.24,244.89 L 159.91,245.35 L 159.61,245.85 L 159.33,246.39 L 159.06,246.98 L 158.82,247.61 L 158.60,248.29 L 158.40,249.01 L 158.23,249.77 L 158.08,250.58 L 157.96,251.44 L 157.86,252.33 L 157.79,253.28 L 157.74,254.26 L 157.73,255.29 L 157.74,256.36 L 157.78,257.47 L 157.85,258.63 L 157.95,259.82 L 158.09,261.05 L 158.25,262.32 L 158.45,263.63 L 158.67,264.97 L 158.93,266.35 L 159.23,267.76 L 159.55,269.20 L 159.91,270.66 L 160.30,272.15 L 160.72,273.67 L 161.17,275.20 L 161.65,276.76 L 162.16,278.32 L 162.71,279.90 L 163.28,281.49 L 163.88,283.08 L 164.50,284.68 L 165.16,286.27 L 165.83,287.85 L 166.53,289.42 L 167.26,290.98 L 168.00,292.52 L 168.76,294.04 L 169.54,295.53 L 170.33,296.98 L 171.13,298.40 L 171.95,299.78 L 172.78,301.12 L 173.61,302.40 L 174.44,303.64 L 175.28,304.81 L 176.12,305.93 L 176.95,306.98 L 177.78,307.96 L 178.61,308.87 L 179.42,309.71 L 180.22,310.47 L 181.02,311.15 L 181.79,311.74 L 182.55,312.26 L 183.29,312.69 L 184.02,313.03 L 184.71,313.29 L 185.39,313.46 L 186.04,313.54 L 186.67,313.54 L 187.27,313.45 L 187.84,313.27 L 188.39,313.01 L 188.90,312.66 L 189.38,312.24 L 189.84,311.74 L 190.26,311.15 L 190.65,310.50 L 191.02,309.77 L 191.35,308.98 L 191.65,308.12 L 191.92,307.19 L 192.15,306.21 L 192.36,305.18 L 192.54,304.09 L 192.69,302.95 L 192.80,301.77 L 192.89,300.54 L 192.95,299.28 L 192.98,297.98 L 192.99,296.65 L 192.97,295.30 L 192.92,293.92 L 192.84,292.52 L 192.74,291.10 L 192.62,289.66 L 192.47,288.22 L 192.29,286.76 L 192.10,285.30 L 191.88,283.83 L 191.64,282.37 L 191.38,280.90 L 191.10,279.43 L 190.79,277.98 L 190.47,276.52 L 190.13,275.08 L 189.77,273.65 L 189.40,272.22 L 189.00,270.82 L 188.59,269.42 L 188.16,268.05 L 187.72,266.69 L 187.26,265.35 L 186.79,264.03 L 186.31,262.73 L 185.81,261.45 L 185.29,260.20 L 184.77,258.96 L 184.23,257.76 L 183.69,256.57 L 183.13,255.42 L 182.56,254.29 L 181.98,253.18 L 181.40,252.10 L 180.80,251.05 L 180.20,250.03 L 179.59,249.04 L 178.97,248.07 L 178.35,247.14 L 177.72,246.23 L 177.08,245.36 L 176.45,244.51 L 175.80,243.70 L 175.16,242.92 L 174.51,242.17 L 173.86,241.45 L 173.20,240.77 L 172.55,240.12 L 171.90,239.50 L 171.24,238.91 L 170.59,238.36 L 169.94,237.85 L 169.28,237.36 L 168.64,236.92 L 167.99,236.51 L 167.35,236.14 L 166.71,235.80 L 166.08,235.50 L 165.46,235.24 L 164.84,235.02 L 164.23,234.84 L 163.62,234.70 L 163.03,234.60 L 162.44,234.54 L 161.86,234.52 L 161.30,234.55 L 160.75,234.61 L 160.20,234.72 L 159.68,234.88 L 159.16,235.08 L 158.66,235.33 L 158.18,235.62 L 157.72,235.96 L 157.27,236.35 L 156.84,236.78 L 156.43,237.27 L 156.04,237.81 L 155.67,238.39 L 155.33,239.03 L 155.01,239.72 L 154.71,240.46 L 154.44,241.25 L 154.20,242.10 L 153.98,243.00 L 153.79,243.96 L 153.64,244.96 L 153.51,246.03 L 153.42,247.14 L 153.35,248.32 L 153.33,249.54 L 153.33,250.82 L 153.38,252.15 L 153.46,253.54 L 153.57,254.97 L 153.73,256.46 L 153.92,258.00 L 154.16,259.59 L 154.43,261.22 L 154.75,262.90 L 155.10,264.63 L 155.50,266.39 L 155.94,268.20 L 156.42,270.04 L 156.94,271.91 L 157.50,273.82 L 158.10,275.75 L 158.74,277.70 L 159.42,279.68 L 160.14,281.67 L 160.90,283.66 L 161.69,285.67 L 162.51,287.68 L 163.37,289.68 L 164.26,291.67 L 165.18,293.64 L 166.12,295.60 L 167.09,297.53 L 168.08,299.42 L 169.09,301.28 L 170.12,303.09 L 171.16,304.84 L 172.21,306.54 L 173.27,308.18 L 174.33,309.75 L 175.39,311.25 L 176.46,312.66 L 177.52,313.99 L 178.57,315.22 L 179.61,316.37 L 180.64,317.41 L 181.65,318.35 L 182.64,319.19 L 183.61,319.91 L 184.56,320.53 L 185.47,321.03 L 186.37,321.41 L 187.23,321.69 L 188.05,321.84 L 188.85,321.88 L 189.61,321.81 L 190.33,321.62 L 191.01,321.32 L 191.66,320.91 L 192.26,320.40 L 192.83,319.78 L 193.36,319.06 L 193.85,318.24 L 194.30,317.33 L 194.71,316.33 L 195.08,315.25 L 195.41,314.09 L 195.70,312.86 L 195.95,311.55 L 196.17,310.18 L 196.35,308.75 L 196.50,307.27 L 196.60,305.73 L 196.68,304.15 L 196.72,302.54 L 196.73,300.88 L 196.71,299.20 L 196.65,297.48 L 196.57,295.75 L 196.45,294.00 L 196.31,292.23 L 196.14,290.45 L 195.94,288.67 L 195.72,286.88 L 195.47,285.09 L 195.20,283.31 L 194.90,281.52 L 194.58,279.75 L 194.23,277.99 L 193.87,276.24 L 193.48,274.50 L 193.07,272.78 L 192.64,271.07 L 192.20,269.39 L 191.73,267.72 L 191.25,266.08 L 190.74,264.47 L 190.22,262.87 L 189.69,261.30 L 189.13,259.76 L 188.57,258.24 L 187.99,256.76 L 187.39,255.30 L 186.78,253.87 L 186.16,252.46 L 185.52,251.09 L 184.88,249.75 L 184.22,248.44 L 183.55,247.16 L 182.87,245.91 L 182.18,244.69 L 181.48,243.51 L 180.78,242.35 L 180.07,241.23 L 179.34,240.14 L 178.62,239.08 L 177.88,238.05 L 177.14,237.06 L 176.40,236.10 L 175.65,235.18 L 174.90,234.29 L 174.14,233.43 L 173.38,232.60 L 172.62,231.81 L 171.86,231.06 L 171.10,230.34 L 170.33,229.65 L 169.57,229.00 L 168.81,228.39 L 168.04,227.81 L 167.28,227.27 L 166.53,226.76 L 165.77,226.30 L 165.02,225.87 L 164.27,225.48 L 163.53,225.13 L 162.79,224.82 L 162.06,224.55 L 161.34,224.32 L 160.63,224.14 L 159.92,223.99 L 159.22,223.89 L 158.53,223.84 L 157.86,223.83 L 157.19,223.86 L 156.54,223.95 L 155.90,224.08 L 155.27,224.26 L 154.66,224.49 L 154.07,224.77 L 153.49,225.10 L 152.93,225.48 L 152.39,225.92 L 151.87,226.42 L 151.38,226.97 L 150.90,227.58 L 150.45,228.24 L 150.03,228.97 L 149.63,229.75 L 149.26,230.60 L 148.91,231.51 L 148.60,232.48 L 148.32,233.52 L 148.08,234.63 L 147.86,235.79 L 147.69,237.03 L 147.55,238.34 L 147.45,239.71 L 147.39,241.15 L 147.38,242.66 L 147.40,244.24 L 147.47,245.88 L 147.59,247.60 L 147.76,249.38 L 147.97,251.23 L 148.23,253.15 L 148.55,255.13 L 148.91,257.18 L 149.33,259.29 L 149.80,261.45 L 150.33,263.68 L 150.91,265.96 L 151.54,268.29 L 152.23,270.67 L 152.97,273.09 L 153.77,275.55 L 154.62,278.05 L 155.52,280.57 L 156.47,283.12 L 157.47,285.68 L 158.52,288.25 L 159.61,290.83 L 160.75,293.40 L 161.93,295.97 L 163.14,298.51 L 164.39,301.02 L 165.67,303.50 L 166.98,305.93 L 168.31,308.31 L 169.66,310.63 L 171.03,312.87 L 172.40,315.03 L 173.79,317.10 L 175.17,319.08 L 176.55,320.95 L 177.93,322.70 L 179.29,324.33 L 180.64,325.84 L 181.97,327.21 L 183.27,328.44 L 184.54,329.52 L 185.78,330.46 L 186.99,331.24 L 188.16,331.87 L 189.28,332.34 L 190.36,332.65 L 191.40,332.81 L 192.39,332.81 L 193.32,332.65 L 194.21,332.34 L 195.04,331.88 L 195.82,331.27 L 196.55,330.52 L 197.23,329.64 L 197.85,328.62 L 198.42,327.48 L 198.94,326.22 L 199.41,324.85 L 199.82,323.37 L 200.19,321.80 L 200.51,320.13 L 200.79,318.39 L 201.01,316.57 L 201.20,314.68 L 201.34,312.73 L 201.44,310.72 L 201.50,308.67 L 201.52,306.58 L 201.50,304.45 L 201.45,302.30 L 201.37,300.12 L 201.24,297.93 L 201.09,295.73 L 200.91,293.52 L 200.69,291.31 L 200.45,289.09 L 200.17,286.89 L 199.87,284.69 L 199.54,282.51 L 199.19,280.35 L 198.81,278.20 L 198.41,276.07 L 197.98,273.96 L 197.53,271.88 L 197.06,269.83 L 196.56,267.80 L 196.05,265.81 L 195.51,263.84 L 194.96,261.91 L 194.38,260.01 L 193.79,258.14 L 193.18,256.30 L 192.55,254.50 L 191.91,252.73 L 191.25,251.00 L 190.57,249.30 L 189.88,247.64 L 189.18,246.01 L 188.46,244.42 L 187.73,242.86 L 186.99,241.34 L 186.23,239.85 L 185.47,238.40 L 184.69,236.98 L 183.90,235.60 L 183.11,234.25 L 182.30,232.94 L 181.49,231.65 L 180.66,230.41 L 179.84,229.19 L 179.00,228.01 L 178.16,226.87 L 177.31,225.76 L 176.46,224.68 L 175.60,223.63 L 174.74,222.62 L 173.87,221.64 L 173.01,220.69 L 172.14,219.78 L 171.26,218.90 L 170.39,218.05 L 169.51,217.24 L 168.63,216.46 L 167.76,215.72 L 166.88,215.01 L 166.00,214.33 L 165.13,213.69 L 164.25,213.09 L 163.38,212.52 L 162.51,211.99 L 161.65,211.49 L 160.79,211.03 L 159.93,210.61 L 159.08,210.23 L 158.23,209.89 L 157.38,209.59 L 156.55,209.32 L 155.72,209.10 L 154.90,208.93 L 154.09,208.79 L 153.28,208.70 L 152.49,208.66 L 151.71,208.66 L 150.94,208.71 L 150.18,208.81 L 149.43,208.96 L 148.70,209.16 L 147.98,209.42 L 147.28,209.72 L 146.59,210.09 L 145.93,210.51 L 145.28,210.99 L 144.66,211.53 L 144.05,212.14 L 143.47,212.81 L 142.92,213.54 L 142.39,214.34 L 141.89,215.22 L 141.41,216.16 L 140.97,217.18 L 140.57,218.27 L 140.19,219.44 L 139.86,220.68 L 139.56,222.01 L 139.31,223.42 L 139.09,224.91 L 138.92,226.49 L 138.80,228.16 L 138.73,229.92 L 138.71,231.76 L 138.75,233.70 L 138.84,235.72 L 138.98,237.84 L 139.19,240.05 L 139.46,242.36 L 139.80,244.76 L 140.20,247.24 L 140.67,249.82 L 141.21,252.49 L 141.82,255.25 L 142.50,258.09 L 143.26,261.01 L 144.09,264.01 L 145.00,267.09 L 145.98,270.23 L 147.04,273.44 L 148.17,276.71 L 149.38,280.03 L 150.65,283.38 L 152.00,286.78 L 153.41,290.19 L 154.89,293.63 L 156.43,297.06 L 158.03,300.49 L 159.69,303.90 L 161.39,307.28 L 163.13,310.61 L 164.91,313.88 L 166.73,317.08 L 168.57,320.20 L 170.42,323.21 L 172.29,326.11 L 174.17,328.88 L 176.04,331.51 L 177.90,333.98 L 179.75,336.29 L 181.57,338.42 L 183.36,340.36 L 185.11,342.10 L 186.82,343.63 L 188.48,344.95 L 190.08,346.05 L 191.63,346.93 L 193.11,347.57 L 194.53,347.99 L 195.87,348.19 L 197.14,348.15 L 198.34,347.89 L 199.47,347.42 L 200.51,346.73 L 201.48,345.83 L 202.38,344.74 L 203.20,343.46 L 203.95,342.00 L 204.63,340.37 L 205.24,338.58 L 205.78,336.65 L 206.25,334.58 L 206.66,332.39 L 207.02,330.09 L 207.31,327.69 L 207.55,325.20 L 207.74,322.64 L 207.88,320.01 L 207.97,317.33 L 208.01,314.60 L 208.01,311.83 L 207.97,309.04 L 207.89,306.23 L 207.78,303.41 L 207.62,300.59 L 207.44,297.77 L 207.22,294.96 L 206.97,292.17 L 206.69,289.39 L 206.37,286.64 L 206.04,283.92 L 205.67,281.22 L 205.27,278.56 L 204.86,275.94 L 204.41,273.36 L 203.94,270.81 L 203.45,268.31 L 202.93,265.85 L 202.39,263.44 L 201.84,261.07 L 201.25,258.74 L 200.65,256.46 L 200.03,254.22 L 199.39,252.03 L 198.73,249.89 L 198.06,247.79 L 197.36,245.73 L 196.65,243.72 L 195.92,241.75 L 195.18,239.82 L 194.42,237.93 L 193.65,236.09 L 192.87,234.29 L 192.07,232.52 L 191.26,230.80 L 190.44,229.11 L 189.60,227.46 L 188.76,225.85 L 187.91,224.27 L 187.04,222.73 L 186.17,221.23 L 185.29,219.75 L 184.41,218.32 L 183.51,216.91 L 182.61,215.53 L 181.71,214.19 L 180.80,212.88 L 179.88,211.60 L 178.96,210.35 L 178.03,209.12 L 177.10,207.93 L 176.17,206.76 L 175.24,205.63 L 174.30,204.52 L 173.36,203.43 L 172.42,202.38 L 171.48,201.35 L 170.53,200.35 L 169.59,199.37 L 168.64,198.42 L 167.70,197.50 L 166.75,196.60 L 165.80,195.73 L 164.86,194.89 L 163.91,194.07 L 162.97,193.28 L 162.03,192.51 L 161.09,191.77 L 160.15,191.06 L 159.21,190.37 L 158.27,189.71 L 157.33,189.08 L 156.40,188.47 L 155.47,187.89 L 154.54,187.35 L 153.62,186.83 L 152.69,186.34 L 151.77,185.88 L 150.86,185.45 L 149.94,185.05 L 149.03,184.68 L 148.13,184.35 L 147.23,184.05 L 146.33,183.78 L 145.44,183.55 L 144.55,183.36 L 143.67,183.20 L 142.79,183.08 L 141.92,183.00 L 141.06,182.97 L 140.20,182.97 L 139.36,183.02 L 138.52,183.12 L 137.69,183.26 L 136.87,183.45 L 136.06,183.69 L 135.26,183.99 L 134.47,184.34 L 133.70,184.74 L 132.95,185.21 L 132.20,185.73 L 131.48,186.32 L 130.77,186.97 L 130.09,187.70 L 129.43,188.49 L 128.78,189.36 L 128.17,190.31 L 127.58,191.33 L 127.02,192.44 L 126.49,193.64 L 126.00,194.92 L 125.54,196.30 L 125.12,197.78 L 124.75,199.35 L 124.42,201.03 L 124.13,202.82 L 123.90,204.72 L 123.72,206.73 L 123.60,208.86 L 123.55,211.12 L 123.55,213.49 L 123.63,216.00 L 123.78,218.64 L 124.01,221.41 L 124.32,224.32 L 124.72,227.37 L 125.20,230.56 L 125.78,233.89 L 126.46,237.36 L 127.24,240.97 L 128.12,244.73 L 129.11,248.63 L 130.21,252.66 L 131.42,256.83 L 132.75,261.12 L 134.19,265.54 L 135.75,270.08 L 137.43,274.72 L 139.23,279.46 L 141.14,284.28 L 143.16,289.17 L 145.29,294.13 L 147.52,299.12 L 149.85,304.13 L 152.27,309.15 L 154.78,314.15 L 157.36,319.10 L 160.01,324.00 L 162.71,328.80 L 165.46,333.48 L 168.23,338.03 L 171.02,342.41 L 173.82,346.59 L 176.61,350.56 L 179.38,354.28 L 182.11,357.73 L 184.78,360.90 L 187.40,363.75 L 189.94,366.28 L 192.40,368.46 L 194.76,370.28 L 197.02,371.74 L 199.16,372.83 L 201.19,373.54 L 203.10,373.88 L 204.87,373.85 L 206.53,373.45 L 208.05,372.69 L 209.45,371.59 L 210.72,370.16 L 211.87,368.42 L 212.91,366.38 L 213.83,364.08 L 214.65,361.52 L 215.36,358.73 L 215.98,355.73 L 216.51,352.55 L 216.96,349.21 L 217.34,345.73 L 217.64,342.13 L 217.88,338.44 L 218.06,334.66 L 218.19,330.83 L 218.26,326.96 L 218.29,323.07 L 218.28,319.16 L 218.23,315.25 L 218.15,311.36 L 218.03,307.50 L 217.88,303.67 L 217.70,299.88 L 217.49,296.15 L 217.26,292.47 L 217.00,288.85 L 216.71,285.29 L 216.40,281.81 L 216.07,278.39 L 215.71,275.05 L 215.34,271.78 L 214.94,268.59 L 214.51,265.47 L 214.07,262.42 L 213.61,259.45 L 213.12,256.56 L 212.62,253.73 L 212.09,250.98 L 211.55,248.29 L 210.99,245.68 L 210.41,243.13 L 209.81,240.64 L 209.20,238.22 L 208.57,235.86 L 207.92,233.56 L 207.26,231.31 L 206.59,229.12 L 205.90,226.98 L 205.21,224.89 L 204.50,222.85 L 203.78,220.86 L 203.05,218.92 L 202.31,217.02 L 201.57,215.16 L 200.82,213.34 L 200.06,211.56 L 199.29,209.81 L 198.53,208.11 L 197.76,206.43 L 196.98,204.79 L 196.21,203.19 L 195.43,201.61 L 194.65,200.06 L 193.88,198.54 L 193.10,197.04 L 192.33,195.58 L 191.56,194.13 L 190.80,192.71 L 190.03,191.32 L 189.28,189.94 L 188.53,188.59 L 187.78,187.25 L 187.04,185.94 L 186.31,184.64 L 185.59,183.37 L 184.87,182.10 L 184.17,180.86 L 183.47,179.63 L 182.78,178.42 L 182.11,177.22 L 181.44,176.04 L 180.79,174.87 L 180.15,173.71 L 179.53,172.57 L 178.91,171.43 L 178.31,170.31 L 177.73,169.20 L 177.16,168.11 L 176.60,167.02 L 176.06,165.94 L 175.54,164.88 L 175.04,163.82 L 174.55,162.77 L 174.08,161.73 L 173.63,160.70 L 173.20,159.68 L 172.79,158.67 L 172.40,157.67 L 172.03,156.68 L 171.68,155.69 L 171.35,154.71 L 171.05,153.74 L 170.78,152.78 L 170.52,151.82 L 170.30,150.88 L 170.10,149.94 L 169.93,149.01 L 169.79,148.09 L 169.68,147.18 L 169.59,146.27 L 169.54,145.38 L 169.53,144.49 L 169.55,143.61 L 169.60,142.75 L 169.69,141.89 L 169.82,141.04 L 169.99,140.21 L 170.21,139.39 L 170.46,138.58 L 170.76,137.78 L 171.11,137.00 L 171.51,136.23 L 171.96,135.48 L 172.46,134.75 L 173.02,134.03 L 173.63,133.34 L 174.31,132.66 L 175.05,132.01 L 175.85,131.39 L 176.73,130.79 L 177.67,130.22 L 178.69,129.68 L 179.79,129.17 L 180.97,128.70 L 182.24,128.27 L 183.59,127.88 L 185.03,127.53 L 186.57,127.23 L 188.21,126.99 L 189.95,126.79 L 191.80,126.66 L 193.77,126.58 L 195.84,126.58 L 198.04,126.64 L 200.36,126.79 L 202.81,127.01 L 205.39,127.31 L 208.10,127.71 L 210.96,128.21 L 213.96,128.80 L 217.10,129.50 L 220.39,130.31 L 223.83,131.24 L 227.42,132.29 L 231.16,133.47 L 235.06,134.78 L 239.11,136.23 L 243.31,137.81 L 247.65,139.54 L 252.15,141.41 L 256.78,143.44 L 261.54,145.61 L 266.42,147.93 L 271.42,150.40 L 276.53,153.02 L 281.72,155.78 L 286.98,158.69 L 292.31,161.72 L 297.67,164.88 L 303.04,168.16 L 308.41,171.54 L 313.75,175.01 L 319.03,178.57 L 324.22,182.19 L 329.30,185.85 L 334.23,189.55 L 338.99,193.25 L 343.54,196.95 L 347.86,200.61 L 351.90,204.23 L 355.66,207.77 L 359.09,211.23 L 362.18,214.58 L 364.90,217.80 L 367.23,220.88 L 369.16,223.80 L 370.68,226.56 L 371.77,229.13 L 372.43,231.51 L 372.67,233.71 L 372.49,235.70 L 371.89,237.50 L 370.88,239.10 L 369.49,240.51 L 367.73,241.73 L 365.61,242.76 L 363.17,243.63 L 360.43,244.34 L 357.41,244.89 L 354.14,245.30 L 350.65,245.58 L 346.97,245.74 L 343.12,245.80 L 339.13,245.76 L 335.02,245.63 L 330.82,245.43 L 326.56,245.16 L 322.25,244.84 L 317.91,244.46 L 313.57,244.04 L 309.23,243.58 L 304.91,243.09 L 300.63,242.57 L 296.40,242.03 L 292.23,241.46 L 288.11,240.88 L 284.08,240.28 L 280.12,239.67 L 276.24,239.04 L 272.45,238.40 L 268.75,237.75 L 265.14,237.09 L 261.62,236.42 L 258.19,235.74 L 254.86,235.05 L 251.62,234.34 L 248.47,233.63 L 245.40,232.91 L 242.43,232.18 L 239.54,231.44 L 236.74,230.69 L 234.01,229.93 L 231.37,229.16 L 228.80,228.38 L 226.31,227.59 L 223.89,226.80 L 221.53,226.00 L 219.25,225.19 L 217.02,224.37 L 214.86,223.55 L 212.76,222.73 L 210.71,221.89 L 208.72,221.06 L 206.78,220.22 L 204.89,219.38 L 203.04,218.54 L 201.24,217.70 L 199.49,216.85 L 197.77,216.01 L 196.10,215.17 L 194.46,214.33 L 192.86,213.50 L 191.29,212.67 L 189.76,211.84 L 188.25,211.03 L 186.78,210.21 L 185.34,209.41 L 183.92,208.61 L 182.53,207.83 L 181.16,207.05 L 179.81,206.29 L 178.49,205.53 L 177.19,204.79 L 175.91,204.07 L 174.65,203.35 L 173.41,202.66 L 172.19,201.97 L 170.98,201.31 L 169.80,200.66 L 168.62,200.03 L 167.46,199.42 L 166.32,198.83 L 165.19,198.26 L 164.08,197.71 L 162.97,197.19 L 161.89,196.69 L 160.81,196.21 L 159.74,195.76 L 158.69,195.33 L 157.65,194.93 L 156.62,194.56 L 155.60,194.22 L 154.60,193.91 L 153.60,193.63 L 152.62,193.38 L 151.64,193.17 L 150.68,192.99 L 149.73,192.84 L 148.79,192.74 L 147.87,192.67 L 146.95,192.64 L 146.05,192.66 L 145.16,192.71 L 144.28,192.82 L 143.42,192.96 L 142.57,193.16 L 141.74,193.41 L 140.92,193.70 L 140.12,194.06 L 139.34,194.46 L 138.58,194.93 L 137.83,195.45 L 137.11,196.04 L 136.41,196.69 L 135.73,197.41 L 135.08,198.20 L 134.45,199.06 L 133.86,199.99 L 133.29,201.00 L 132.75,202.09 L 132.25,203.27 L 131.79,204.53 L 131.36,205.87 L 130.97,207.31 L 130.63,208.84 L 130.33,210.47 L 130.08,212.20 L 129.88,214.03 L 129.74,215.97 L 129.65,218.02 L 129.63,220.17 L 129.67,222.44 L 129.77,224.82 L 129.95,227.33 L 130.19,229.94 L 130.52,232.68 L 130.92,235.54 L 131.41,238.53 L 131.98,241.63 L 132.64,244.85 L 133.39,248.20 L 134.23,251.66 L 135.17,255.23 L 136.21,258.92 L 137.34,262.71 L 138.58,266.61 L 139.91,270.60 L 141.35,274.68 L 142.88,278.83 L 144.51,283.06 L 146.23,287.34 L 148.05,291.67 L 149.96,296.04 L 151.95,300.41 L 154.02,304.79 L 156.16,309.16 L 158.37,313.49 L 160.63,317.77 L 162.95,321.97 L 165.31,326.09 L 167.70,330.09 L 170.11,333.95 L 172.53,337.66 L 174.95,341.20 L 177.36,344.54 L 179.75,347.66 L 182.10,350.55 L 184.42,353.19 L 186.68,355.57 L 188.88,357.66 L 191.01,359.47 L 193.06,360.97 L 195.03,362.17 L 196.90,363.06 L 198.68,363.63 L 200.36,363.89 L 201.93,363.84 L 203.40,363.49 L 204.77,362.83 L 206.03,361.89 L 207.18,360.67 L 208.24,359.19 L 209.19,357.46 L 210.05,355.49 L 210.82,353.30 L 211.50,350.92 L 212.09,348.35 L 212.61,345.62 L 213.05,342.74 L 213.41,339.73 L 213.72,336.61 L 213.96,333.40 L 214.14,330.11 L 214.27,326.75 L 214.35,323.35 L 214.38,319.91 L 214.37,316.45 L 214.32,312.97 L 214.23,309.50 L 214.10,306.04 L 213.94,302.59 L 213.75,299.17 L 213.53,295.78 L 213.27,292.43 L 212.99,289.13 L 212.68,285.87 L 212.34,282.66 L 211.98,279.51 L 211.59,276.41 L 211.18,273.37 L 210.75,270.39 L 210.29,267.47 L 209.81,264.61 L 209.30,261.82 L 208.78,259.09 L 208.23,256.41 L 207.66,253.80 L 207.08,251.25 L 206.47,248.75 L 205.85,246.32 L 205.20,243.94 L 204.54,241.62 L 203.86,239.35 L 203.17,237.13 L 202.46,234.96 L 201.74,232.85 L 201.00,230.78 L 200.25,228.76 L 199.49,226.79 L 198.71,224.86 L 197.92,222.97 L 197.13,221.13 L 196.32,219.32 L 195.51,217.55 L 194.68,215.82 L 193.85,214.13 L 193.02,212.47 L 192.17,210.85 L 191.32,209.25 L 190.47,207.69 L 189.61,206.16 L 188.75,204.66 L 187.89,203.19 L 187.03,201.74 L 186.16,200.33 L 185.29,198.93 L 184.42,197.56 L 183.56,196.22 L 182.69,194.90 L 181.82,193.60 L 180.96,192.32 L 180.09,191.06 L 179.23,189.83 L 178.37,188.61 L 177.52,187.41 L 176.66,186.23 L 175.81,185.07 L 174.97,183.92 L 174.13,182.80 L 173.29,181.68 L 172.46,180.59 L 171.63,179.51 L 170.81,178.44 L 169.99,177.39 L 169.18,176.36 L 168.38,175.33 L 167.58,174.33 L 166.79,173.33 L 166.00,172.35 L 165.22,171.38 L 164.44,170.42 L 163.68,169.47 L 162.91,168.54 L 162.16,167.61 L 161.41,166.70 L 160.67,165.80 L 159.94,164.91 L 159.21,164.03 L 158.49,163.16 L 157.77,162.30 L 157.07,161.44 L 156.37,160.60 L 155.68,159.77 L 154.99,158.95 L 154.31,158.13 L 153.64,157.33 L 152.98,156.53 L 152.32,155.75 L 151.68,154.97 L 151.03,154.19 L 150.40,153.43 L 149.77,152.67 L 149.15,151.93 L 148.54,151.18 L 147.93,150.45 L 147.34,149.73 L 146.74,149.01 L 146.16,148.29 L 145.58,147.59 L 145.02,146.89 L 144.45,146.20 L 143.90,145.51 L 143.35,144.83 L 142.81,144.16 L 142.28,143.49 L 141.75,142.83 L 141.23,142.17 L 140.72,141.52 L 140.22,140.88 L 139.72,140.24 L 139.23,139.60 L 138.75,138.98 L 138.28,138.35 L 137.81,137.73 L 137.35,137.12 L 136.90,136.51 L 136.46,135.90 L 136.02,135.30 L 135.59,134.71 L 135.17,134.11 L 134.76,133.52 L 134.35,132.94 L 133.95,132.36 L 133.56,131.78 L 133.18,131.20 L 132.81,130.63 L 132.44,130.07 L 132.08,129.50 L 131.74,128.94 L 131.40,128.38 L 131.06,127.82 L 130.74,127.27 L 130.43,126.72 L 130.12,126.16 L 129.83,125.62 L 129.54,125.07 L 129.27,124.53 L 129.00,123.98 L 128.75,123.44 L 128.50,122.90 L 128.27,122.36 L 128.04,121.82 L 127.83,121.28 L 127.63,120.75 L 127.44,120.21 L 127.27,119.67 L 127.10,119.13 L 126.95,118.60 L 126.81,118.06 L 126.69,117.52 L 126.58,116.99 L 126.49,116.45 L 126.41,115.91 L 126.34,115.37 L 126.30,114.83 L 126.27,114.29 L 126.25,113.74 L 126.26,113.20 L 126.29,112.65 L 126.33,112.11 L 126.40,111.56 L 126.49,111.01 L 126.60,110.46 L 126.74,109.91 L 126.90,109.35 L 127.08,108.80 L 127.30,108.24 L 127.54,107.68 L 127.82,107.13 L 128.12,106.57 L 128.46,106.01 L 128.83,105.45 L 129.24,104.89 L 129.69,104.34 L 130.18,103.78 L 130.72,103.23 L 131.30,102.68 L 131.92,102.14 L 132.60,101.60 L 133.33,101.07 L 134.12,100.54 L 134.97,100.03 L 135.87,99.52 L 136.85,99.03 L 137.90,98.55 L 139.02,98.09 L 140.22,97.65 L 141.50,97.23 L 142.87,96.83 L 144.34,96.46 L 145.90,96.12 L 147.57,95.82 L 149.35,95.56 L 151.24,95.34 L 153.26,95.17 L 155.41,95.06 L 157.69,95.00 L 160.12,95.01 L 162.71,95.10 L 165.45,95.26 L 168.37,95.51 L 171.46,95.86 L 174.74,96.32 L 178.21,96.88 L 181.89,97.58 L 185.78,98.40 L 189.89,99.37 L 194.24,100.50 L 198.82,101.79 L 203.65,103.27 L 208.73,104.93 L 214.07,106.79 L 219.68,108.86 L 225.55,111.15 L 231.69,113.68 L 238.10,116.45 L 244.78,119.47 L 251.71,122.74 L 258.90,126.28 L 266.33,130.08 L 273.98,134.14 L 281.83,138.46 L 289.86,143.04 L 298.04,147.87 L 306.34,152.93 L 314.72,158.20 L 323.13,163.68 L 331.52,169.32 L 339.84,175.10 L 348.04,180.99 L 356.04,186.96 L 363.79,192.95 L 371.22,198.93 L 378.27,204.86 L 384.86,210.68 L 390.94,216.35 L 396.45,221.83 L 401.32,227.08 L 405.52,232.06 L 408.99,236.72 L 411.71,241.05 L 413.66,245.02 L 414.82,248.61 L 415.20,251.82 L 414.79,254.63 L 413.62,257.06 L 411.73,259.11 L 409.14,260.81 L 405.91,262.16 L 402.08,263.19 L 397.71,263.94 L 392.86,264.43 L 387.60,264.69 L 381.98,264.75 L 376.06,264.65 L 369.92,264.41 L 363.59,264.07 L 357.14,263.64 L 350.61,263.14 L 344.05,262.61 L 337.50,262.05 L 331.00,261.48 L 324.57,260.92 L 318.25,260.36 L 312.05,259.83 L 306.00,259.32 L 300.10,258.84 L 294.38,258.39 L 288.83,257.97 L 283.46,257.58 L 278.29,257.22 L 273.30,256.89 L 268.50,256.59 L 263.89,256.31 L 259.47,256.06 L 255.23,255.82 L 251.16,255.60 L 247.27,255.40 L 243.54,255.21 L 239.98,255.03 L 236.57,254.86 L 233.31,254.69 L 230.19,254.53 L 227.21,254.37 L 224.36,254.22 L 221.64,254.06 L 219.04,253.91 L 216.55,253.76 L 214.17,253.60 L 211.89,253.45 L 209.71,253.29 L 207.62,253.13 L 205.62,252.97 L 203.70,252.82 L 201.87,252.66 L 200.11,252.50 L 198.42,252.35 L 196.80,252.19 L 195.25,252.04 L 193.75,251.89 L 192.32,251.75 L 190.94,251.61 L 189.62,251.48 L 188.34,251.36 L 187.12,251.24 L 185.94,251.13 L 184.81,251.04 L 183.72,250.95 L 182.67,250.88 L 181.65,250.82 L 180.68,250.77 L 179.74,250.74 L 178.84,250.72 L 177.97,250.72 L 177.13,250.74 L 176.32,250.77 L 175.55,250.83 L 174.80,250.90 L 174.08,251.00 L 173.40,251.12 L 172.73,251.26 L 172.10,251.42 L 171.49,251.61 L 170.91,251.82 L 170.36,252.06 L 169.82,252.32 L 169.32,252.61 L 168.84,252.92 L 168.38,253.26 L 167.95,253.63 L 167.55,254.03 L 167.16,254.45 L 166.81,254.91 L 166.47,255.39 L 166.16,255.90 L 165.88,256.44 L 165.62,257.01 L 165.38,257.61 L 165.17,258.23 L 164.98,258.89 L 164.82,259.57 L 164.68,260.29 L 164.57,261.03 L 164.48,261.79 L 164.42,262.59 L 164.38,263.41 L 164.37,264.25 L 164.38,265.13 L 164.41,266.02 L 164.48,266.94 L 164.56,267.88 L 164.67,268.84 L 164.81,269.82 L 164.97,270.82 L 165.15,271.84 L 165.35,272.88 L 165.58,273.92 L 165.84,274.98 L 166.11,276.05 L 166.41,277.13 L 166.73,278.22 L 167.07,279.31 L 167.43,280.40 L 167.81,281.49 L 168.21,282.58 L 168.63,283.67 L 169.06,284.75 L 169.51,285.82 L 169.98,286.88 L 170.46,287.92 L 170.95,288.95 L 171.45,289.96 L 171.97,290.95 L 172.49,291.91 L 173.03,292.85 L 173.57,293.76 L 174.11,294.63 L 174.66,295.48 L 175.22,296.28 L 175.77,297.05 L 176.33,297.78 L 176.88,298.46 L 177.44,299.10 L 177.98,299.69 L 178.53,300.23 L 179.07,300.73 L 179.60,301.17 L 180.12,301.56 L 180.63,301.90 L 181.13,302.19 L 181.62,302.42 L 182.10,302.59 L 182.56,302.71 L 183.01,302.77 L 183.45,302.78 L 183.86,302.73 L 184.26,302.63 L 184.64,302.47 L 185.00,302.26 L 185.35,301.99 L 185.67,301.68 L 185.98,301.31 L 186.26,300.89 L 186.53,300.42 L 186.77,299.91 L 186.99,299.36 L 187.19,298.76 L 187.37,298.11 L 187.53,297.43 L 187.67,296.71 L 187.79,295.96 L 187.88,295.17 L 187.96,294.35 L 188.01,293.50 L 188.05,292.62 L 188.06,291.72 L 188.06,290.80 L 188.03,289.85 L 187.98,288.88 L 187.92,287.90 L 187.84,286.90 L 187.73,285.89 L 187.61,284.87 L 187.47,283.84 L 187.32,282.80 L 187.15,281.76 L 186.96,280.71 L 186.75,279.66 L 186.53,278.61 L 186.29,277.56 L 186.04,276.51 L 185.77,275.47 L 185.49,274.43 L 185.20,273.40 L 184.89,272.38 L 184.57,271.36 L 184.23,270.36 L 183.89,269.36 L 183.53,268.38 L 183.16,267.42 L 182.78,266.47 L 182.39,265.53 L 181.99,264.61 L 181.59,263.71 L 181.17,262.82 L 180.74,261.95 L 180.31,261.11 L 179.87,260.28 L 179.42,259.47 L 178.97,258.69 L 178.51,257.93 L 178.05,257.19 L 177.58,256.47 L 177.11,255.78 L 176.63,255.11 L 176.15,254.47 L 175.66,253.85 L 175.18,253.26 L 174.69,252.70 L 174.20,252.16 L 173.71,251.65 L 173.22,251.17 L 172.74,250.72 L 172.25,250.29 L 171.76,249.90 L 171.28,249.53 L 170.80,249.20 L 170.32,248.89 L 169.84,248.62 L 169.37,248.38 L 168.91,248.17 L 168.45,247.99 L 167.99,247.85 L 167.55,247.73 L 167.11,247.66 L 166.68,247.61 L 166.26,247.60 L 165.84,247.63 L 165.44,247.69 L 165.05,247.79 L 164.66,247.92 L 164.29,248.09 L 163.94,248.29 L 163.59,248.53 L 163.26,248.81 L 162.95,249.13 L 162.65,249.48 L 162.36,249.87 L 162.10,250.30 L 161.85,250.77 L 161.61,251.28 L 161.40,251.83 L 161.21,252.41 L 161.03,253.03 L 160.88,253.69 L 160.74,254.39 L 160.63,255.13 L 160.55,255.90 L 160.48,256.71 L 160.44,257.56 L 160.42,258.45 L 160.43,259.37 L 160.46,260.32 L 160.51,261.31 L 160.60,262.34 L 160.70,263.39 L 160.84,264.48 L 161.00,265.60 L 161.19,266.75 L 161.40,267.92 L 161.65,269.12 L 161.92,270.35 L 162.21,271.59 L 162.53,272.86 L 162.88,274.15 L 163.26,275.45 L 163.66,276.76 L 164.09,278.09 L 164.54,279.42 L 165.01,280.77 L 165.51,282.11 L 166.03,283.45 L 166.57,284.79 L 167.13,286.13 L 167.71,287.46 L 168.31,288.77 L 168.93,290.07 L 169.56,291.35 L 170.21,292.60 L 170.87,293.83 L 171.54,295.03 L 172.22,296.20 L 172.91,297.33 L 173.60,298.42 L 174.30,299.47 L 175.00,300.47 L 175.70,301.42 L 176.40,302.33 L 177.10,303.17 L 177.80,303.96 L 178.49,304.69 L 179.17,305.36 L 179.84,305.96 L 180.50,306.50 L 181.15,306.97 L 181.79,307.38 L 182.41,307.71 L 183.01,307.97 L 183.60,308.17 L 184.17,308.29 L 184.72,308.34 L 185.24,308.31 L 185.75,308.22 L 186.23,308.06 L 186.69,307.83 L 187.12,307.53 L 187.53,307.16 L 187.92,306.73 L 188.28,306.24 L 188.61,305.68 L 188.92,305.07 L 189.20,304.39 L 189.46,303.67 L 189.69,302.89 L 189.89,302.06 L 190.07,301.19 L 190.22,300.27 L 190.35,299.30 L 190.45,298.30 L 190.53,297.27 L 190.58,296.20 L 190.60,295.10 L 190.60,293.97 L 190.58,292.82 L 190.54,291.64 L 190.47,290.45 L 190.38,289.24 L 190.27,288.01 L 190.14,286.77 L 189.98,285.52 L 189.81,284.26 L 189.61,283.00 L 189.40,281.74 L 189.16,280.47 L 188.91,279.21 L 188.64,277.94 L 188.35,276.68 L 188.05,275.43 L 187.73,274.18 L 187.39,272.95 L 187.04,271.72 L 186.67,270.51 L 186.28,269.31 L 185.89,268.12 L 185.48,266.95 L 185.05,265.79 L 184.62,264.66 L 184.17,263.54 L 183.71,262.44 L 183.24,261.36 L 182.76,260.30 L 182.27,259.26 L 181.77,258.25 L 181.26,257.26 L 180.74,256.29 L 180.22,255.35 L 179.69,254.43 L 179.15,253.54 L 178.60,252.68 L 178.05,251.84 L 177.49,251.03 L 176.93,250.25 L 176.37,249.49 L 175.80,248.76 L 175.23,248.07 L 174.66,247.40 L 174.08,246.76 L 173.50,246.16 L 172.93,245.58 L 172.35,245.03 L 171.77,244.52 L 171.20,244.04 L 170.62,243.59 L 170.05,243.18 L 169.48,242.80 L 168.92,242.45 L 168.36,242.14 L 167.80,241.86 L 167.25,241.62 L 166.70,241.42 L 166.16,241.25 L 165.63,241.12 L 165.11,241.02 L 164.60,240.97 L 164.09,240.95 L 163.60,240.97 L 163.11,241.03 L 162.64,241.14 L 162.18,241.28 L 161.74,241.46 L 161.30,241.69 L 160.89,241.96 L 160.48,242.27 L 160.10,242.62 L 159.73,243.02 L 159.38,243.46 L 159.05,243.95 L 158.74,244.48 L 158.45,245.05 L 158.18,245.67 L 157.93,246.34 L 157.70,247.06 L 157.50,247.82 L 157.33,248.62 L 157.18,249.47 L 157.05,250.37 L 156.96,251.32 L 156.89,252.31 L 156.85,253.34 L 156.84,254.42 L 156.86,255.55 L 156.91,256.72 L 156.99,257.93 L 157.10,259.19 L 157.25,260.49 L 157.43,261.82 L 157.64,263.20 L 157.89,264.61 L 158.17,266.06 L 158.48,267.54 L 158.83,269.05 L 159.21,270.60 L 159.63,272.17 L 160.08,273.76 L 160.56,275.38 L 161.08,277.01 L 161.62,278.66 L 162.20,280.32 L 162.81,281.99 L 163.45,283.67 L 164.12,285.34 L 164.81,287.01 L 165.53,288.68 L 166.28,290.33 L 167.04,291.97 L 167.83,293.59 L 168.64,295.18 L 169.46,296.74 L 170.30,298.27 L 171.15,299.75 L 172.02,301.20 L 172.89,302.59 L 173.76,303.93 L 174.65,305.22 L 175.53,306.44 L 176.41,307.60 L 177.29,308.68 L 178.16,309.70 L 179.03,310.63 L 179.88,311.49 L 180.72,312.26 L 181.55,312.95 L 182.36,313.55 L 183.16,314.07 L 183.93,314.49 L 184.68,314.82 L 185.40,315.05 L 186.11,315.20 L 186.78,315.25 L 187.43,315.21 L 188.04,315.08 L 188.63,314.86 L 189.19,314.54 L 189.71,314.14 L 190.21,313.66 L 190.67,313.09 L 191.10,312.45 L 191.50,311.72 L 191.86,310.93 L 192.19,310.06 L 192.49,309.12 L 192.76,308.12 L 192.99,307.06 L 193.19,305.94 L 193.36,304.77 L 193.50,303.55 L 193.61,302.29 L 193.69,300.98 L 193.74,299.64 L 193.76,298.26 L 193.75,296.85 L 193.71,295.42 L 193.65,293.96 L 193.56,292.48 L 193.45,290.99 L 193.31,289.48 L 193.14,287.96 L 192.95,286.44 L 192.74,284.91 L 192.50,283.37 L 192.24,281.84 L 191.96,280.31 L 191.66,278.78 L 191.34,277.27 L 191.00,275.76 L 190.64,274.26 L 190.26,272.77 L 189.86,271.29 L 189.45,269.84 L 189.02,268.40 L 188.57,266.97 L 188.11,265.57 L 187.63,264.18 L 187.14,262.82 L 186.63,261.48 L 186.11,260.17 L 185.57,258.87 L 185.03,257.60 L 184.47,256.36 L 183.90,255.14 L 183.32,253.95 L 182.73,252.79 L 182.13,251.66 L 181.52,250.55 L 180.90,249.47 L 180.28,248.42 L 179.64,247.40 L 179.00,246.41 L 178.36,245.45 L 177.70,244.52 L 177.05,243.62 L 176.38,242.76 L 175.72,241.92 L 175.05,241.12 L 174.38,240.35 L 173.70,239.61 L 173.03,238.90 L 172.35,238.23 L 171.67,237.59 L 170.99,236.99 L 170.31,236.42 L 169.64,235.89 L 168.96,235.39 L 168.29,234.93 L 167.62,234.51 L 166.96,234.12 L 166.30,233.77 L 165.64,233.45 L 164.99,233.18 L 164.35,232.95 L 163.71,232.75 L 163.08,232.60 L 162.46,232.48 L 161.85,232.41 L 161.25,232.39 L 160.66,232.40 L 160.08,232.46 L 159.52,232.56 L 158.96,232.71 L 158.42,232.90 L 157.90,233.14 L 157.39,233.43 L 156.90,233.77 L 156.43,234.16 L 155.98,234.59 L 155.55,235.08 L 155.13,235.61 L 154.74,236.20 L 154.37,236.85 L 154.03,237.54 L 153.71,238.29 L 153.42,239.10 L 153.15,239.96 L 152.92,240.87 L 152.71,241.84 L 152.53,242.87 L 152.39,243.96 L 152.28,245.10 L 152.20,246.30 L 152.16,247.55 L 152.15,248.87 L 152.18,250.24 L 152.25,251.66 L 152.36,253.14 L 152.50,254.68 L 152.69,256.27 L 152.92,257.91 L 153.19,259.60 L 153.51,261.35 L 153.86,263.14 L 154.27,264.97 L 154.71,266.85 L 155.20,268.77 L 155.73,270.73 L 156.31,272.72 L 156.93,274.74 L 157.59,276.79 L 158.29,278.86 L 159.04,280.96 L 159.82,283.06 L 160.64,285.18 L 161.50,287.29 L 162.40,289.41 L 163.33,291.52 L 164.29,293.61 L 165.28,295.69 L 166.30,297.74 L 167.34,299.76 L 168.40,301.73 L 169.48,303.67 L 170.58,305.55 L 171.69,307.37 L 172.81,309.13 L 173.93,310.81 L 175.06,312.42 L 176.18,313.95 L 177.31,315.38 L 178.42,316.72 L 179.52,317.96 L 180.61,319.10 L 181.69,320.12 L 182.74,321.04 L 183.77,321.83 L 184.78,322.51 L 185.75,323.07 L 186.70,323.51 L 187.61,323.82 L 188.49,324.01 L 189.33,324.08 L 190.14,324.02 L 190.90,323.84 L 191.63,323.55 L 192.31,323.13 L 192.96,322.60 L 193.56,321.96 L 194.12,321.21 L 194.64,320.36 L 195.11,319.41 L 195.54,318.37 L 195.94,317.23 L 196.29,316.02 L 196.60,314.72 L 196.87,313.35 L 197.10,311.91 L 197.29,310.40 L 197.44,308.84 L 197.56,307.23 L 197.64,305.57 L 197.69,303.87 L 197.70,302.13 L 197.68,300.36 L 197.63,298.56 L 197.55,296.74 L 197.43,294.90 L 197.29,293.04 L 197.12,291.18 L 196.92,289.31 L 196.69,287.44 L 196.43,285.56 L 196.16,283.69 L 195.85,281.83 L 195.52,279.98 L 195.17,278.13 L 194.80,276.30 L 194.40,274.49 L 193.98,272.69 L 193.55,270.92 L 193.09,269.16 L 192.61,267.43 L 192.11,265.72 L 191.60,264.03 L 191.07,262.37 L 190.52,260.74 L 189.95,259.13 L 189.37,257.56 L 188.78,256.01 L 188.17,254.49 L 187.54,253.00 L 186.90,251.54 L 186.25,250.11 L 185.59,248.72 L 184.92,247.35 L 184.23,246.02 L 183.53,244.72 L 182.83,243.45 L 182.11,242.21 L 181.39,241.00 L 180.65,239.83 L 179.91,238.69 L 179.16,237.59 L 178.41,236.51 L 177.65,235.47 L 176.88,234.47 L 176.11,233.49 L 175.34,232.55 L 174.56,231.65 L 173.78,230.77 L 172.99,229.94 L 172.21,229.13 L 171.42,228.36 L 170.63,227.63 L 169.84,226.93 L 169.05,226.27 L 168.26,225.64 L 167.47,225.05 L 166.69,224.50 L 165.90,223.98 L 165.12,223.50 L 164.34,223.06 L 163.57,222.66 L 162.80,222.30 L 162.04,221.98 L 161.28,221.69 L 160.54,221.45 L 159.79,221.26 L 159.06,221.10 L 158.34,220.99 L 157.62,220.92 L 156.92,220.90 L 156.22,220.93 L 155.54,221.00 L 154.88,221.12 L 154.22,221.29 L 153.58,221.51 L 152.96,221.79 L 152.36,222.11 L 151.77,222.49 L 151.20,222.92 L 150.65,223.41 L 150.13,223.96 L 149.62,224.57 L 149.14,225.23 L 148.69,225.96 L 148.26,226.75 L 147.86,227.60 L 147.49,228.52 L 147.15,229.50 L 146.85,230.55 L 146.57,231.67 L 146.33,232.85 L 146.13,234.11 L 145.97,235.44 L 145.85,236.84 L 145.77,238.31 L 145.73,239.85 L 145.74,241.47 L 145.79,243.16 L 145.89,244.92 L 146.04,246.75 L 146.24,248.66 L 146.49,250.64 L 146.80,252.69 L 147.16,254.81 L 147.58,257.00 L 148.05,259.25 L 148.58,261.57 L 149.17,263.94 L 149.81,266.38 L 150.51,268.87 L 151.28,271.41 L 152.09,273.99 L 152.97,276.62 L 153.90,279.28 L 154.89,281.97 L 155.93,284.68 L 157.02,287.41 L 158.17,290.14 L 159.36,292.88 L 160.59,295.61 L 161.87,298.33 L 163.19,301.02 L 164.54,303.67 L 165.92,306.29 L 167.33,308.84 L 168.77,311.34 L 170.22,313.77 L 171.68,316.11 L 173.15,318.36 L 174.63,320.50 L 176.10,322.54 L 177.57,324.46 L 179.03,326.25 L 180.47,327.90 L 181.88,329.41 L 183.28,330.78 L 184.64,331.98 L 185.97,333.03 L 187.26,333.91 L 188.51,334.63 L 189.72,335.18 L 190.87,335.55 L 191.98,335.76 L 193.04,335.79 L 194.04,335.66 L 194.99,335.36 L 195.88,334.90 L 196.71,334.29 L 197.49,333.51 L 198.21,332.59 L 198.87,331.53 L 199.48,330.34 L 200.03,329.01 L 200.53,327.57 L 200.97,326.01 L 201.37,324.35 L 201.71,322.59 L 202.00,320.75 L 202.24,318.82 L 202.44,316.82 L 202.59,314.76 L 202.70,312.64 L 202.77,310.47 L 202.80,308.26 L 202.79,306.01 L 202.74,303.74 L 202.65,301.44 L 202.53,299.13 L 202.38,296.81 L 202.20,294.48 L 201.98,292.15 L 201.73,289.83 L 201.46,287.51 L 201.15,285.21 L 200.82,282.91 L 200.46,280.64 L 200.08,278.39 L 199.67,276.16 L 199.24,273.96 L 198.78,271.79 L 198.30,269.64 L 197.80,267.52 L 197.28,265.44 L 196.74,263.39 L 196.17,261.37 L 195.59,259.39 L 194.99,257.44 L 194.37,255.53 L 193.73,253.66 L 193.08,251.82 L 192.41,250.02 L 191.72,248.25 L 191.02,246.52 L 190.30,244.83 L 189.57,243.17 L 188.83,241.55 L 188.07,239.97 L 187.30,238.42 L 186.52,236.90 L 185.73,235.43 L 184.93,233.98 L 184.12,232.58 L 183.30,231.20 L 182.47,229.86 L 181.63,228.56 L 180.79,227.29 L 179.94,226.05 L 179.08,224.85 L 178.21,223.68 L 177.34,222.54 L 176.47,221.43 L 175.59,220.36 L 174.70,219.32 L 173.81,218.32 L 172.92,217.34 L 172.03,216.40 L 171.13,215.49 L 170.24,214.62 L 169.34,213.77 L 168.44,212.96 L 167.54,212.19 L 166.64,211.44 L 165.74,210.73 L 164.84,210.05 L 163.94,209.41 L 163.04,208.80 L 162.15,208.23 L 161.26,207.69 L 160.37,207.19 L 159.49,206.72 L 158.61,206.29 L 157.73,205.90 L 156.86,205.55 L 155.99,205.24 L 155.13,204.96 L 154.28,204.73 L 153.44,204.54 L 152.60,204.39 L 151.77,204.28 L 150.95,204.22 L 150.14,204.21 L 149.34,204.24 L 148.55,204.32 L 147.78,204.45 L 147.02,204.64 L 146.27,204.87 L 145.54,205.16 L 144.82,205.51 L 144.12,205.91 L 143.44,206.37 L 142.78,206.89 L 142.14,207.48 L 141.52,208.13 L 140.93,208.84 L 140.36,209.63 L 139.82,210.48 L 139.31,211.41 L 138.83,212.41 L 138.38,213.49 L 137.97,214.65 L 137.59,215.89 L 137.25,217.21 L 136.95,218.62 L 136.69,220.11 L 136.48,221.69 L 136.32,223.37 L 136.20,225.14 L 136.14,227.00 L 136.13,228.96 L 136.18,231.01 L 136.29,233.17 L 136.46,235.42 L 136.70,237.77 L 137.00,240.23 L 137.37,242.78 L 137.82,245.43 L 138.33,248.19 L 138.92,251.04 L 139.59,253.98 L 140.34,257.02 L 141.17,260.15 L 142.08,263.37 L 143.07,266.67 L 144.14,270.04 L 145.30,273.49 L 146.53,277.00 L 147.85,280.56 L 149.24,284.17 L 150.71,287.82 L 152.25,291.50 L 153.86,295.20 L 155.55,298.89 L 157.29,302.58 L 159.09,306.25 L 160.94,309.88 L 162.84,313.47 L 164.78,316.98 L 166.75,320.41 L 168.74,323.75 L 170.76,326.97 L 172.78,330.07 L 174.81,333.02 L 176.83,335.81 L 178.83,338.42 L 180.81,340.85 L 182.76,343.08 L 184.68,345.09 L 186.54,346.89 L 188.36,348.45 L 190.12,349.77 L 191.81,350.85 L 193.44,351.68 L 194.99,352.26 L 196.47,352.59 L 197.87,352.67 L 199.18,352.50 L 200.41,352.09 L 201.56,351.45 L 202.63,350.57 L 203.61,349.47 L 204.51,348.17 L 205.33,346.66 L 206.08,344.96 L 206.74,343.09 L 207.33,341.06 L 207.86,338.88 L 208.31,336.56 L 208.70,334.11 L 209.03,331.56 L 209.29,328.91 L 209.51,326.18 L 209.67,323.38 L 209.78,320.52 L 209.84,317.61 L 209.86,314.66 L 209.83,311.68 L 209.77,308.69 L 209.66,305.69 L 209.52,302.68 L 209.35,299.68 L 209.14,296.70 L 208.90,293.73 L 208.63,290.79 L 208.33,287.87 L 208.00,284.98 L 207.64,282.13 L 207.26,279.32 L 206.85,276.55 L 206.41,273.83 L 205.95,271.15 L 205.47,268.51 L 204.96,265.93 L 204.43,263.39 L 203.88,260.90 L 203.30,258.46 L 202.71,256.07 L 202.10,253.73 L 201.46,251.43 L 200.81,249.19 L 200.14,246.99 L 199.45,244.84 L 198.75,242.74 L 198.02,240.69 L 197.29,238.68 L 196.53,236.71 L 195.77,234.79 L 194.99,232.90 L 194.19,231.06 L 193.39,229.27 L 192.57,227.51 L 191.74,225.79 L 190.90,224.10 L 190.05,222.46 L 189.19,220.85 L 188.33,219.27 L 187.45,217.73 L 186.57,216.22 L 185.68,214.75 L 184.78,213.31 L 183.88,211.89 L 182.98,210.51 L 182.06,209.16 L 181.15,207.84 L 180.23,206.54 L 179.31,205.27 L 178.38,204.03 L 177.45,202.82 L 176.52,201.63 L 175.59,200.47 L 174.65,199.33 L 173.72,198.22 L 172.78,197.14 L 171.85,196.07 L 170.91,195.03 L 169.97,194.02 L 169.04,193.03 L 168.10,192.06 L 167.16,191.11 L 166.23,190.19 L 165.29,189.28 L 164.36,188.41 L 163.43,187.55 L 162.50,186.71 L 161.57,185.90 L 160.64,185.11 L 159.72,184.35 L 158.79,183.60 L 157.87,182.88 L 156.95,182.18 L 156.03,181.50 L 155.12,180.85 L 154.20,180.22 L 153.29,179.61 L 152.38,179.03 L 151.47,178.47 L 150.57,177.94 L 149.66,177.43 L 148.76,176.95 L 147.87,176.50 L 146.97,176.07 L 146.08,175.67 L 145.19,175.29 L 144.30,174.95 L 143.42,174.63 L 142.54,174.35 L 141.66,174.10 L 140.79,173.88 L 139.92,173.69 L 139.05,173.53 L 138.19,173.42 L 137.33,173.34 L 136.48,173.29 L 135.63,173.29 L 134.79,173.33 L 133.96,173.40 L 133.13,173.53 L 132.31,173.70 L 131.50,173.91 L 130.69,174.18 L 129.90,174.50 L 129.11,174.87 L 128.34,175.29 L 127.58,175.78 L 126.84,176.32 L 126.10,176.93 L 125.39,177.61 L 124.69,178.35 L 124.01,179.16 L 123.36,180.05 L 122.72,181.02 L 122.11,182.07 L 121.53,183.21 L 120.98,184.43 L 120.46,185.75 L 119.98,187.16 L 119.53,188.68 L 119.12,190.30 L 118.76,192.03 L 118.45,193.87 L 118.18,195.83 L 117.97,197.91 L 117.82,200.12 L 117.73,202.46 L 117.71,204.94 L 117.77,207.55 L 117.89,210.31 L 118.10,213.22 L 118.40,216.28 L 118.78,219.50 L 119.27,222.87 L 119.85,226.40 L 120.54,230.10 L 121.34,233.96 L 122.25,237.98 L 123.29,242.17 L 124.44,246.52 L 125.73,251.03 L 127.14,255.70 L 128.69,260.52 L 130.37,265.48 L 132.18,270.58 L 134.13,275.80 L 136.21,281.14 L 138.43,286.57 L 140.77,292.09 L 143.24,297.67 L 145.83,303.30 L 148.53,308.95 L 151.33,314.60 L 154.22,320.22 L 157.20,325.79 L 160.24,331.27 L 163.34,336.64 L 166.49,341.86 L 169.65,346.90 L 172.83,351.73 L 176.00,356.32 L 179.14,360.64 L 182.24,364.65 L 185.28,368.33 L 188.25,371.66 L 191.14,374.60 L 193.92,377.15 L 196.58,379.28 L 199.12,380.98 L 201.52,382.25 L 203.78,383.07 L 205.90,383.46 L 207.87,383.41 L 209.68,382.93 L 211.34,382.04 L 212.85,380.74 L 214.22,379.07 L 215.44,377.03 L 216.54,374.66 L 217.50,371.98 L 218.34,369.01 L 219.07,365.79 L 219.70,362.34 L 220.23,358.69 L 220.67,354.87 L 221.04,350.91 L 221.33,346.82 L 221.56,342.64 L 221.73,338.39 L 221.85,334.10 L 221.92,329.77 L 221.95,325.43 L 221.94,321.10 L 221.90,316.78 L 221.82,312.50 L 221.72,308.27 L 221.59,304.09 L 221.43,299.97 L 221.25,295.93 L 221.05,291.96 L 220.82,288.07 L 220.58,284.26 L 220.31,280.54 L 220.02,276.91 L 219.72,273.37 L 219.39,269.91 L 219.04,266.55 L 218.68,263.28 L 218.29,260.09 L 217.88,256.99 L 217.46,253.98 L 217.02,251.05 L 216.55,248.20 L 216.08,245.43 L 215.58,242.74 L 215.07,240.12 L 214.54,237.57 L 213.99,235.10 L 213.43,232.68 L 212.86,230.34 L 212.27,228.05 L 211.67,225.83 L 211.06,223.66 L 210.44,221.55 L 209.81,219.49 L 209.18,217.48 L 208.53,215.52 L 207.88,213.61 L 207.22,211.74 L 206.56,209.91 L 205.89,208.12 L 205.23,206.37 L 204.56,204.66 L 203.89,202.99 L 203.22,201.35 L 202.55,199.74 L 201.89,198.16 L 201.23,196.62 L 200.57,195.10 L 199.92,193.61 L 199.28,192.14 L 198.64,190.70 L 198.01,189.29 L 197.39,187.90 L 196.78,186.53 L 196.18,185.18 L 195.60,183.86 L 195.02,182.55 L 194.46,181.26 L 193.92,180.00 L 193.39,178.75 L 192.87,177.51 L 192.38,176.30 L 191.90,175.10 L 191.44,173.91 L 191.00,172.75 L 190.58,171.59 L 190.18,170.46 L 189.81,169.33 L 189.45,168.23 L 189.13,167.13 L 188.82,166.05 L 188.55,164.99 L 188.30,163.94 L 188.08,162.90 L 187.89,161.87 L 187.72,160.86 L 187.60,159.87 L 187.50,158.89 L 187.44,157.92 L 187.41,156.97 L 187.42,156.04 L 187.46,155.11 L 187.55,154.21 L 187.67,153.32 L 187.84,152.45 L 188.06,151.60 L 188.31,150.77 L 188.62,149.95 L 188.97,149.16 L 189.37,148.39 L 189.83,147.64 L 190.34,146.91 L 190.91,146.21 L 191.54,145.53 L 192.22,144.89 L 192.97,144.27 L 193.79,143.68 L 194.67,143.12 L 195.62,142.60 L 196.64,142.12 L 197.74,141.67 L 198.92,141.27 L 200.18,140.91 L 201.52,140.59 L 202.94,140.32 L 204.46,140.11 L 206.06,139.95 L 207.76,139.84 L 209.55,139.80 L 211.45,139.82 L 213.44,139.90 L 215.54,140.06 L 217.74,140.29 L 220.05,140.59 L 222.48,140.98 L 225.01,141.45 L 227.65,142.00 L 230.41,142.65 L 233.28,143.39 L 236.27,144.23 L 239.37,145.17 L 242.58,146.21 L 245.90,147.36 L 249.33,148.62 L 252.87,149.98 L 256.51,151.46 L 260.24,153.04 L 264.07,154.74 L 267.97,156.55 L 271.96,158.46 L 276.01,160.49 L 280.12,162.62 L 284.27,164.85 L 288.45,167.18 L 292.66,169.60 L 296.86,172.10 L 301.06,174.68 L 305.23,177.33 L 309.35,180.05 L 313.40,182.81 L 317.37,185.61 L 321.23,188.43 L 324.97,191.28 L 328.56,194.12 L 331.99,196.96 L 335.24,199.77 L 338.27,202.54 L 341.09,205.27 L 343.67,207.93 L 345.99,210.51 L 348.05,213.01 L 349.82,215.42 L 351.30,217.72 L 352.49,219.90 L 353.37,221.96 L 353.94,223.89 L 354.20,225.69 L 354.16,227.35 L 353.82,228.87 L 353.18,230.26 L 352.26,231.51 L 351.05,232.62 L 349.59,233.59 L 347.87,234.44 L 345.92,235.16 L 343.74,235.76 L 341.37,236.25 L 338.81,236.63 L 336.08,236.91 L 333.20,237.09 L 330.19,237.19 L 327.07,237.20 L 323.85,237.14 L 320.54,237.01 L 317.17,236.82 L 313.75,236.57 L 310.30,236.27 L 306.82,235.91 L 303.33,235.52 L 299.83,235.08 L 296.35,234.61 L 292.89,234.10 L 289.45,233.57 L 286.04,233.00 L 282.68,232.41 L 279.36,231.80 L 276.09,231.16 L 272.87,230.50 L 269.71,229.82 L 266.60,229.12 L 263.56,228.40 L 260.59,227.67 L 257.67,226.92 L 254.82,226.15 L 252.04,225.37 L 249.32,224.57 L 246.66,223.75 L 244.07,222.93 L 241.54,222.09 L 239.07,221.23 L 236.67,220.36 L 234.32,219.49 L 232.03,218.59 L 229.80,217.69 L 227.63,216.78 L 225.51,215.86 L 223.44,214.92 L 221.42,213.98 L 219.46,213.03 L 217.54,212.07 L 215.67,211.11 L 213.84,210.14 L 212.05,209.16 L 210.31,208.18 L 208.61,207.19 L 206.94,206.19 L 205.32,205.20 L 203.73,204.20 L 202.17,203.20 L 200.65,202.19 L 199.16,201.19 L 197.71,200.18 L 196.28,199.17 L 194.88,198.17 L 193.51,197.16 L 192.16,196.16 L 190.85,195.16 L 189.55,194.16 L 188.28,193.16 L 187.04,192.16 L 185.82,191.17 L 184.61,190.18 L 183.43,189.20 L 182.27,188.22 L 181.13,187.25 L 180.00,186.28 L 178.90,185.32 L 177.81,184.36 L 176.74,183.41 L 175.68,182.46 L 174.64,181.52 L 173.62,180.59 L 172.61,179.67 L 171.61,178.75 L 170.63,177.84 L 169.66,176.93 L 168.70,176.04 L 167.76,175.15 L 166.83,174.27 L 165.91,173.40 L 165.00,172.54 L 164.10,171.68 L 163.21,170.84 L 162.34,170.00 L 161.47,169.17 L 160.61,168.35 L 159.77,167.54 L 158.93,166.74 L 158.10,165.94 L 157.28,165.16 L 156.46,164.38 L 155.66,163.62 L 154.86,162.86 L 154.07,162.11 L 153.29,161.37 L 152.52,160.64 L 151.75,159.92 L 150.99,159.21 L 150.23,158.51 L 149.48,157.82 L 148.74,157.14 L 148.01,156.47 L 147.28,155.80 L 146.55,155.15 L 145.83,154.51 L 145.12,153.88 L 144.41,153.26 L 143.70,152.64 L 143.00,152.04 L 142.31,151.45 L 141.62,150.87 L 140.93,150.30 L 140.25,149.74 L 139.57,149.19 L 138.89,148.65 L 138.22,148.12 L 137.55,147.61 L 136.88,147.10 L 136.21,146.61 L 135.55,146.12 L 134.89,145.65 L 134.24,145.19 L 133.58,144.75 L 132.93,144.31 L 132.28,143.89 L 131.63,143.48 L 130.98,143.09 L 130.33,142.71 L 129.68,142.34 L 129.03,141.98 L 128.39,141.64 L 127.74,141.32 L 127.10,141.01 L 126.45,140.71 L 125.80,140.44 L 125.16,140.17 L 124.51,139.93 L 123.86,139.70 L 123.21,139.49 L 122.56,139.30 L 121.91,139.13 L 121.26,138.98 L 120.61,138.85 L 119.95,138.75 L 119.29,138.66 L 118.64,138.60 L 117.97,138.56 L 117.31,138.55 L 116.65,138.57 L 115.98,138.61 L 115.32,138.68 L 114.65,138.78 L 113.98,138.92 L 113.30,139.09 L 112.63,139.29 L 111.96,139.53 L 111.28,139.80 L 110.61,140.12 L 109.93,140.48 L 109.26,140.88 L 108.59,141.33 L 107.92,141.83 L 107.25,142.39 L 106.58,142.99 L 105.93,143.66 L 105.27,144.38 L 104.63,145.17 L 103.99,146.03 L 103.36,146.96 L 102.74,147.96 L 102.14,149.04 L 101.55,150.21 L 100.98,151.47 L 100.44,152.82 L 99.91,154.27 L 99.41,155.82 L 98.95,157.49 L 98.51,159.27 L 98.12,161.17 L 97.76,163.21 L 97.46,165.38 L 97.20,167.69 L 97.00,170.16 L 96.87,172.78 L 96.80,175.57 L 96.81,178.54 L 96.91,181.69 L 97.09,185.03 L 97.37,188.57 L 97.75,192.32 L 98.25,196.29 L 98.88,200.47 L 99.63,204.89 L 100.52,209.55 L 101.57,214.45 L 102.77,219.60 L 104.13,225.00 L 105.68,230.66 L 107.40,236.58 L 109.32,242.74 L 111.43,249.16 L 113.74,255.83 L 116.26,262.73 L 118.99,269.86 L 121.93,277.20 L 125.08,284.73 L 128.44,292.43 L 131.99,300.28 L 135.73,308.23 L 139.66,316.26 L 143.75,324.33 L 147.99,332.38 L 152.36,340.38 L 156.83,348.27 L 161.39,356.00 L 166.00,363.50 L 170.63,370.73 L 175.26,377.62 L 179.84,384.12 L 184.36,390.16 L 188.77,395.69 L 193.06,400.66 L 197.18,405.03 L 201.11,408.76 L 204.83,411.82 L 208.33,414.18 L 211.58,415.84 L 214.58,416.77 L 217.32,417.00 L 219.80,416.53 L 222.02,415.37 L 223.99,413.57 L 225.72,411.16 L 227.22,408.17 L 228.51,404.65 L 229.61,400.66 L 230.53,396.25 L 231.29,391.46 L 231.91,386.36 L 232.42,380.99 L 232.82,375.41 L 233.14,369.67 L 233.39,363.81 L 233.58,357.87 L 233.73,351.90 L 233.85,345.92 L 233.95,339.97 L 234.03,334.08 L 234.09,328.27 L 234.15,322.56 L 234.21,316.96 L 234.26,311.50 L 234.31,306.17 L 234.37,300.99 L 234.42,295.97 L 234.48,291.10 L 234.53,286.40 L 234.58,281.85 L 234.62,277.47 L 234.67,273.24 L 234.70,269.17 L 234.73,265.26 L 234.75,261.49 L 234.76,257.87 L 234.76,254.38 L 234.74,251.03 L 234.72,247.82 L 234.68,244.73 L 234.63,241.75 L 234.57,238.90 L 234.50,236.15 L 234.41,233.51 L 234.31,230.97 L 234.20,228.53 L 234.08,226.18 L 233.94,223.91 L 233.80,221.73 L 233.65,219.63 L 233.49,217.60 L 233.33,215.65 L 233.16,213.76 L 232.98,211.94 L 232.81,210.19 L 232.63,208.49 L 232.45,206.85 L 232.27,205.26 L 232.10,203.72 L 231.92,202.24 L 231.76,200.80 L 231.60,199.41 L 231.44,198.06 L 231.30,196.75 L 231.16,195.49 L 231.04,194.26 L 230.93,193.07 L 230.84,191.92 L 230.76,190.80 L 230.69,189.72 L 230.65,188.67 L 230.62,187.65 L 230.62,186.66 L 230.63,185.71 L 230.67,184.79 L 230.74,183.90 L 230.82,183.03 L 230.94,182.20 L 231.08,181.40 L 231.25,180.63 L 231.45,179.88 L 231.68,179.16 L 231.94,178.48 L 232.23,177.82 L 232.56,177.19 L 232.92,176.59 L 233.32,176.02 L 233.75,175.48 L 234.22,174.97 L 234.72,174.50 L 235.27,174.05 L 235.85,173.63 L 236.47,173.25 L 237.14,172.89 L 237.84,172.58 L 238.59,172.29 L 239.37,172.04 L 240.20,171.82 L 241.07,171.64 L 241.99,171.49 L 242.94,171.38 L 243.94,171.31 L 244.98,171.27 L 246.07,171.28 L 247.19,171.32 L 248.36,171.40 L 249.57,171.52 L 250.82,171.68 L 252.11,171.88 L 253.44,172.12 L 254.81,172.40 L 256.21,172.73 L 257.65,173.09 L 259.13,173.50 L 260.63,173.94 L 262.16,174.43 L 263.73,174.96 L 265.31,175.53 L 266.92,176.14 L 268.55,176.78 L 270.20,177.47 L 271.86,178.19 L 273.53,178.95 L 275.21,179.74 L 276.89,180.57 L 278.58,181.43 L 280.25,182.31 L 281.92,183.23 L 283.58,184.17 L 285.21,185.13 L 286.83,186.12 L 288.42,187.12 L 289.97,188.14 L 291.49,189.18 L 292.97,190.22 L 294.41,191.28 L 295.79,192.33 L 297.12,193.39 L 298.38,194.45 L 299.59,195.51 L 300.73,196.55 L 301.79,197.59 L 302.78,198.62 L 303.69,199.62 L 304.51,200.61 L 305.26,201.58 L 305.91,202.52 L 306.48,203.44 L 306.95,204.33 L 307.33,205.18 L 307.61,206.01 L 307.80,206.79 L 307.90,207.55 L 307.90,208.26 L 307.80,208.93 L 307.61,209.57 L 307.33,210.16 L 306.96,210.71 L 306.50,211.22 L 305.96,211.69 L 305.33,212.11 L 304.62,212.49 L 303.83,212.83 L 302.96,213.12 L 302.03,213.37 L 301.03,213.58 L 299.96,213.75 L 298.83,213.88 L 297.65,213.97 L 296.42,214.03 L 295.14,214.04 L 293.81,214.02 L 292.44,213.96 L 291.04,213.87 L 289.61,213.74 L 288.14,213.58 L 286.66,213.39 L 285.15,213.17 L 283.62,212.92 L 282.08,212.64 L 280.53,212.33 L 278.97,212.00 L 277.41,211.64 L 275.84,211.26 L 274.28,210.85 L 272.72,210.42 L 271.16,209.97 L 269.61,209.50 L 268.07,209.01 L 266.54,208.50 L 265.03,207.97 L 263.53,207.42 L 262.05,206.86 L 260.58,206.28 L 259.14,205.68 L 257.71,205.07 L 256.31,204.44 L 254.93,203.81 L 253.58,203.15 L 252.25,202.49 L 250.94,201.82 L 249.66,201.13 L 248.41,200.44 L 247.18,199.73 L 245.99,199.02 L 244.82,198.29 L 243.68,197.56 L 242.57,196.83 L 241.49,196.08 L 240.44,195.34 L 239.42,194.58 L 238.43,193.82 L 237.47,193.06 L 236.54,192.29 L 235.65,191.52 L 234.78,190.75 L 233.95,189.98 L 233.15,189.20 L 232.38,188.43 L 231.65,187.65 L 230.95,186.88 L 230.28,186.11 L 229.65,185.34 L 229.05,184.57 L 228.48,183.80 L 227.95,183.04 L 227.45,182.29 L 226.99,181.53 L 226.57,180.79 L 226.18,180.05 L 225.83,179.32 L 225.51,178.59 L 225.24,177.88 L 225.00,177.17 L 224.80,176.47 L 224.63,175.79 L 224.51,175.11 L 224.43,174.45 L 224.39,173.80 L 224.39,173.17 L 224.43,172.55 L 224.51,171.94 L 224.64,171.35 L 224.81,170.78 L 225.03,170.23 L 225.29,169.70 L 225.60,169.19 L 225.95,168.70 L 226.36,168.23 L 226.81,167.78 L 227.31,167.36 L 227.86,166.97 L 228.46,166.60 L 229.11,166.26 L 229.81,165.95 L 230.56,165.67 L 231.37,165.42 L 232.23,165.20 L 233.15,165.02 L 234.12,164.88 L 235.14,164.77 L 236.23,164.69 L 237.36,164.66 L 238.55,164.67 L 239.80,164.72 L 241.11,164.81 L 242.47,164.94 L 243.88,165.12 L 245.35,165.35 L 246.87,165.62 L 248.45,165.94 L 250.08,166.31 L 251.76,166.73 L 253.49,167.19 L 255.27,167.71 L 257.09,168.28 L 258.96,168.90 L 260.87,169.57 L 262.82,170.29 L 264.80,171.06 L 266.82,171.88 L 268.87,172.75 L 270.94,173.67 L 273.03,174.64 L 275.14,175.65 L 277.25,176.70 L 279.38,177.80 L 281.50,178.94 L 283.62,180.11 L 285.73,181.32 L 287.83,182.56 L 289.90,183.83 L 291.94,185.13 L 293.94,186.45 L 295.90,187.79 L 297.82,189.14 L 299.67,190.50 L 301.46,191.87 L 303.19,193.24 L 304.83,194.61 L 306.39,195.97 L 307.87,197.32 L 309.25,198.66 L 310.53,199.98 L 311.70,201.27 L 312.77,202.54 L 313.72,203.77 L 314.55,204.97 L 315.26,206.14 L 315.85,207.26 L 316.31,208.34 L 316.65,209.37 L 316.86,210.35 L 316.94,211.28 L 316.90,212.16 L 316.73,212.99 L 316.43,213.76 L 316.02,214.47 L 315.48,215.13 L 314.83,215.73 L 314.06,216.27 L 313.19,216.76 L 312.22,217.19 L 311.14,217.57 L 309.98,217.89 L 308.72,218.16 L 307.38,218.37 L 305.97,218.54 L 304.48,218.65 L 302.93,218.72 L 301.31,218.74 L 299.65,218.72 L 297.93,218.65 L 296.17,218.54 L 294.38,218.40 L 292.55,218.21 L 290.69,217.98 L 288.81,217.72 L 286.92,217.43 L 285.01,217.10 L 283.09,216.75 L 281.17,216.36 L 279.24,215.94 L 277.32,215.50 L 275.40,215.03 L 273.49,214.53 L 271.59,214.01 L 269.70,213.47 L 267.83,212.90 L 265.98,212.32 L 264.15,211.71 L 262.34,211.08 L 260.56,210.44 L 258.80,209.78 L 257.06,209.10 L 255.36,208.40 L 253.68,207.69 L 252.03,206.97 L 250.41,206.23 L 248.83,205.47 L 247.27,204.71 L 245.75,203.93 L 244.25,203.14 L 242.79,202.34 L 241.37,201.53 L 239.97,200.71 L 238.61,199.88 L 237.29,199.04 L 236.00,198.19 L 234.74,197.34 L 233.51,196.48 L 232.32,195.61 L 231.16,194.74 L 230.04,193.87 L 228.95,192.99 L 227.89,192.10 L 226.87,191.21 L 225.88,190.32 L 224.92,189.43 L 224.00,188.54 L 223.12,187.64 L 222.26,186.75 L 221.45,185.85 L 220.66,184.96 L 219.91,184.06 L 219.20,183.17 L 218.52,182.28 L 217.87,181.39 L 217.26,180.51 L 216.68,179.63 L 216.15,178.76 L 215.64,177.89 L 215.18,177.02 L 214.75,176.17 L 214.35,175.32 L 214.00,174.47 L 213.68,173.64 L 213.40,172.81 L 213.16,172.00 L 212.97,171.19 L 212.81,170.40 L 212.69,169.62 L 212.62,168.85 L 212.59,168.09 L 212.60,167.35 L 212.65,166.63 L 212.76,165.92 L 212.90,165.23 L 213.10,164.55 L 213.34,163.90 L 213.64,163.26 L 213.98,162.65 L 214.37,162.06 L 214.82,161.49 L 215.32,160.95 L 215.88,160.44 L 216.49,159.95 L 217.16,159.49 L 217.89,159.06 L 218.68,158.67 L 219.53,158.30 L 220.44,157.98 L 221.41,157.69 L 222.45,157.43 L 223.56,157.22 L 224.73,157.05 L 225.97,156.92 L 227.27,156.84 L 228.65,156.81 L 230.10,156.82 L 231.62,156.89 L 233.21,157.00 L 234.87,157.17 L 236.60,157.40 L 238.41,157.69 L 240.29,158.03 L 242.24,158.44 L 244.26,158.91 L 246.35,159.44 L 248.50,160.03 L 250.73,160.70 L 253.02,161.43 L 255.37,162.22 L 257.78,163.09 L 260.25,164.02 L 262.78,165.02 L 265.35,166.09 L 267.97,167.22 L 270.62,168.43 L 273.31,169.69 L 276.03,171.02 L 278.77,172.41 L 281.52,173.86 L 284.28,175.36 L 287.04,176.91 L 289.80,178.52 L 292.53,180.17 L 295.23,181.85 L 297.90,183.57 L 300.52,185.33 L 303.09,187.10 L 305.58,188.90 L 308.00,190.70 L 310.33,192.51 L 312.57,194.32 L 314.70,196.13 L 316.71,197.92 L 318.59,199.69 L 320.35,201.43 L 321.95,203.14 L 323.41,204.81 L 324.71,206.44 L 325.85,208.02 L 326.82,209.54 L 327.62,211.00 L 328.25,212.40 L 328.70,213.73 L 328.97,215.00 L 329.07,216.18 L 328.98,217.29 L 328.73,218.33 L 328.30,219.29 L 327.71,220.16 L 326.95,220.96 L 326.03,221.69 L 324.97,222.33 L 323.76,222.90 L 322.41,223.39 L 320.94,223.81 L 319.34,224.16 L 317.63,224.44 L 315.82,224.66 L 313.91,224.81 L 311.92,224.90 L 309.85,224.93 L 307.71,224.90 L 305.51,224.83 L 303.25,224.70 L 300.96,224.52 L 298.62,224.30 L 296.26,224.04 L 293.87,223.73 L 291.47,223.39 L 289.06,223.01 L 286.64,222.59 L 284.22,222.15 L 281.81,221.67 L 279.41,221.16 L 277.03,220.62 L 274.66,220.06 L 272.31,219.47 L 269.99,218.86 L 267.69,218.22 L 265.43,217.56 L 263.19,216.88 L 260.99,216.18 L 258.82,215.46 L 256.69,214.72 L 254.59,213.96 L 252.53,213.19 L 250.51,212.40 L 248.54,211.59 L 246.59,210.77 L 244.69,209.94 L 242.83,209.09 L 241.01,208.23 L 239.23,207.35 L 237.49,206.47 L 235.79,205.57 L 234.12,204.66 L 232.50,203.74 L 230.92,202.81 L 229.37,201.88 L 227.86,200.93 L 226.39,199.98 L 224.95,199.02 L 223.55,198.05 L 222.19,197.08 L 220.87,196.10 L 219.57,195.11 L 218.32,194.12 L 217.10,193.13 L 215.91,192.13 L 214.76,191.13 L 213.63,190.13 L 212.55,189.12 L 211.49,188.12 L 210.47,187.11 L 209.48,186.10 L 208.52,185.09 L 207.60,184.08 L 206.70,183.07 L 205.84,182.06 L 205.01,181.05 L 204.21,180.04 L 203.44,179.04 L 202.70,178.04 L 202.00,177.04 L 201.32,176.04 L 200.68,175.05 L 200.07,174.06 L 199.49,173.08 L 198.95,172.10 L 198.43,171.13 L 197.95,170.16 L 197.51,169.20 L 197.10,168.24 L 196.72,167.30 L 196.38,166.35 L 196.07,165.42 L 195.80,164.50 L 195.57,163.58 L 195.38,162.68 L 195.22,161.78 L 195.10,160.90 L 195.03,160.03 L 194.99,159.17 L 195.00,158.32 L 195.05,157.49 L 195.15,156.67 L 195.29,155.86 L 195.48,155.08 L 195.72,154.31 L 196.01,153.56 L 196.35,152.82 L 196.74,152.11 L 197.19,151.43 L 197.69,150.76 L 198.25,150.12 L 198.88,149.50 L 199.56,148.92 L 200.31,148.36 L 201.12,147.83 L 202.00,147.34 L 202.95,146.88 L 203.98,146.46 L 205.07,146.08 L 206.24,145.74 L 207.50,145.44 L 208.83,145.19 L 210.24,144.98 L 211.74,144.83 L 213.33,144.73 L 215.00,144.69 L 216.77,144.71 L 218.62,144.79 L 220.58,144.93 L 222.63,145.14 L 224.77,145.42 L 227.02,145.78 L 229.36,146.21 L 231.81,146.73 L 234.36,147.32 L 237.00,148.00 L 239.75,148.77 L 242.60,149.62 L 245.54,150.57 L 248.59,151.62 L 251.72,152.75 L 254.95,153.99 L 258.26,155.32 L 261.65,156.75 L 265.12,158.28 L 268.66,159.90 L 272.27,161.62 L 275.92,163.44 L 279.63,165.34 L 283.36,167.33 L 287.13,169.41 L 290.90,171.57 L 294.68,173.80 L 298.44,176.09 L 302.17,178.45 L 305.86,180.86 L 309.49,183.32 L 313.04,185.80 L 316.50,188.32 L 319.85,190.85 L 323.08,193.38 L 326.16,195.91 L 329.09,198.42 L 331.84,200.90 L 334.39,203.35 L 336.75,205.74 L 338.88,208.08 L 340.79,210.34 L 342.45,212.53 L 343.87,214.63 L 345.03,216.64 L 345.92,218.54 L 346.56,220.34 L 346.92,222.02 L 347.02,223.59 L 346.86,225.04 L 346.43,226.38 L 345.75,227.59 L 344.83,228.69 L 343.67,229.66 L 342.28,230.53 L 340.68,231.28 L 338.87,231.92 L 336.88,232.46 L 334.71,232.89 L 332.38,233.24 L 329.90,233.49 L 327.30,233.66 L 324.57,233.74 L 321.75,233.76 L 318.84,233.70 L 315.85,233.58 L 312.81,233.40 L 309.71,233.17 L 306.58,232.88 L 303.43,232.55 L 300.26,232.17 L 297.08,231.75 L 293.91,231.30 L 290.75,230.81 L 287.60,230.29 L 284.49,229.74 L 281.40,229.16 L 278.34,228.55 L 275.33,227.92 L 272.36,227.27 L 269.43,226.59 L 266.56,225.89 L 263.73,225.18 L 260.96,224.44 L 258.25,223.69 L 255.58,222.91 L 252.98,222.12 L 250.43,221.32 L 247.93,220.50 L 245.50,219.66 L 243.11,218.81 L 240.79,217.94 L 238.51,217.06 L 236.29,216.17 L 234.13,215.27 L 232.01,214.35 L 229.95,213.42 L 227.93,212.48 L 225.97,211.53 L 224.05,210.57 L 222.18,209.61 L 220.35,208.63 L 218.56,207.64 L 216.82,206.65 L 215.12,205.65 L 213.46,204.65 L 211.84,203.64 L 210.25,202.62 L 208.71,201.60 L 207.19,200.57 L 205.71,199.55 L 204.27,198.51 L 202.86,197.48 L 201.48,196.44 L 200.13,195.40 L 198.81,194.36 L 197.51,193.32 L 196.25,192.28 L 195.01,191.24 L 193.80,190.20 L 192.61,189.16 L 191.45,188.12 L 190.32,187.09 L 189.20,186.05 L 188.11,185.02 L 187.05,183.99 L 186.00,182.96 L 184.98,181.93 L 183.97,180.91 L 182.99,179.89 L 182.03,178.88 L 181.09,177.86 L 180.16,176.86 L 179.26,175.85 L 178.37,174.85 L 177.50,173.85 L 176.66,172.86 L 175.82,171.87 L 175.01,170.89 L 174.22,169.91 L 173.44,168.94 L 172.68,167.97 L 171.93,167.00 L 171.20,166.04 L 170.50,165.09 L 169.80,164.13 L 169.13,163.19 L 168.47,162.25 L 167.83,161.31 L 167.20,160.37 L 166.59,159.45 L 166.00,158.52 L 165.43,157.60 L 164.87,156.69 L 164.34,155.78 L 163.82,154.87 L 163.31,153.97 L 162.83,153.07 L 162.37,152.17 L 161.92,151.28 L 161.49,150.40 L 161.09,149.52 L 160.70,148.64 L 160.33,147.77 L 159.98,146.90 L 159.66,146.03 L 159.36,145.17 L 159.08,144.31 L 158.82,143.46 L 158.59,142.61 L 158.38,141.76 L 158.19,140.92 L 158.03,140.08 L 157.90,139.25 L 157.80,138.42 L 157.72,137.60 L 157.68,136.78 L 157.66,135.97 L 157.68,135.16 L 157.73,134.36 L 157.82,133.56 L 157.94,132.77 L 158.10,131.99 L 158.29,131.21 L 158.53,130.45 L 158.81,129.69 L 159.13,128.94 L 159.50,128.20 L 159.92,127.47 L 160.38,126.76 L 160.90,126.06 L 161.47,125.37 L 162.10,124.70 L 162.79,124.04 L 163.55,123.41 L 164.36,122.79 L 165.25,122.20 L 166.21,121.63 L 167.24,121.09 L 168.35,120.58 L 169.55,120.10 L 170.83,119.66 L 172.20,119.25 L 173.67,118.88 L 175.23,118.56 L 176.90,118.28 L 178.68,118.06 L 180.57,117.89 L 182.58,117.79 L 184.71,117.75 L 186.96,117.78 L 189.36,117.88 L 191.89,118.07 L 194.56,118.34 L 197.38,118.71 L 200.36,119.18 L 203.50,119.75 L 206.80,120.44 L 210.26,121.24 L 213.90,122.17 L 217.72,123.23 L 221.71,124.43 L 225.88,125.78 L 230.23,127.28 L 234.77,128.93 L 239.49,130.75 L 244.38,132.74 L 249.45,134.90 L 254.69,137.24 L 260.10,139.75 L 265.65,142.44 L 271.36,145.31 L 277.19,148.35 L 283.13,151.57 L 289.17,154.96 L 295.28,158.50 L 301.44,162.20 L 307.63,166.03 L 313.82,169.99 L 319.96,174.06 L 326.04,178.22 L 332.02,182.45 L 337.85,186.73 L 343.50,191.04 L 348.94,195.35 L 354.12,199.63 L 359.00,203.87 L 363.55,208.03 L 367.73,212.08 L 371.51,216.02 L 374.86,219.80 L 377.75,223.41 L 380.16,226.83 L 382.07,230.04 L 383.47,233.04 L 384.36,235.79 L 384.73,238.32 L 384.59,240.59 L 383.94,242.63 L 382.80,244.42 L 381.20,245.98 L 379.14,247.30 L 376.67,248.41 L 373.81,249.32 L 370.59,250.03 L 367.05,250.57 L 363.22,250.94 L 359.13,251.17 L 354.83,251.27 L 350.35,251.25 L 345.72,251.13 L 340.97,250.92 L 336.14,250.64 L 331.24,250.30 L 326.31,249.91 L 321.38,249.47 L 316.45,249.00 L 311.56,248.50 L 306.71,247.97 L 301.92,247.43 L 297.21,246.88 L 292.59,246.32 L 288.05,245.75 L 283.62,245.17 L 279.29,244.59 L 275.08,244.01 L 270.97,243.42 L 266.98,242.83 L 263.11,242.23 L 259.35,241.63 L 255.70,241.03 L 252.17,240.43 L 248.75,239.82 L 245.43,239.20 L 242.23,238.58 L 239.13,237.95 L 236.12,237.32 L 233.22,236.68 L 230.41,236.04 L 227.69,235.39 L 225.06,234.73 L 222.52,234.07 L 220.05,233.40 L 217.66,232.73 L 215.35,232.05 L 213.11,231.37 L 210.93,230.69 L 208.83,230.00 L 206.78,229.31 L 204.79,228.63 L 202.86,227.94 L 200.98,227.25 L 199.16,226.56 L 197.38,225.88 L 195.65,225.20 L 193.97,224.52 L 192.32,223.85 L 190.72,223.18 L 189.16,222.53 L 187.63,221.88 L 186.14,221.24 L 184.68,220.61 L 183.26,220.00 L 181.86,219.40 L 180.50,218.81 L 179.16,218.23 L 177.85,217.68 L 176.57,217.14 L 175.31,216.62 L 174.07,216.11 L 172.86,215.63 L 171.67,215.17 L 170.50,214.74 L 169.36,214.32 L 168.23,213.94 L 167.12,213.57 L 166.04,213.24 L 164.97,212.94 L 163.92,212.66 L 162.89,212.41 L 161.87,212.20 L 160.88,212.02 L 159.90,211.88 L 158.95,211.77 L 158.01,211.70 L 157.08,211.66 L 156.18,211.67 L 155.30,211.72 L 154.43,211.81 L 153.58,211.94 L 152.76,212.12 L 151.95,212.35 L 151.16,212.62 L 150.40,212.95 L 149.66,213.32 L 148.94,213.75 L 148.24,214.24 L 147.57,214.78 L 146.93,215.38 L 146.31,216.04 L 145.72,216.77 L 145.16,217.55 L 144.63,218.40 L 144.13,219.32 L 143.66,220.31 L 143.23,221.37 L 142.84,222.50 L 142.48,223.70 L 142.16,224.99 L 141.89,226.34 L 141.65,227.78 L 141.47,229.30 L 141.32,230.90 L 141.23,232.58 L 141.19,234.34 L 141.20,236.19 L 141.26,238.13 L 141.38,240.15 L 141.56,242.25 L 141.80,244.45 L 142.10,246.72 L 142.47,249.09 L 142.89,251.53 L 143.39,254.06 L 143.95,256.67 L 144.58,259.35 L 145.28,262.11 L 146.05,264.94 L 146.89,267.84 L 147.80,270.80 L 148.78,273.82 L 149.83,276.89 L 150.94,280.00 L 152.13,283.15 L 153.38,286.33 L 154.69,289.54 L 156.06,292.75 L 157.49,295.97 L 158.97,299.17 L 160.50,302.36 L 162.08,305.52 L 163.70,308.64 L 165.35,311.70 L 167.04,314.69 L 168.75,317.61 L 170.47,320.43 L 172.21,323.15 L 173.96,325.75 L 175.70,328.22 L 177.44,330.55 L 179.16,332.73 L 180.87,334.74 L 182.55,336.59 L 184.19,338.25 L 185.80,339.72 L 187.36,341.00 L 188.88,342.08 L 190.35,342.95 L 191.76,343.62 L 193.10,344.07 L 194.39,344.32 L 195.61,344.36 L 196.76,344.19 L 197.85,343.82 L 198.87,343.25 L 199.81,342.49 L 200.69,341.55 L 201.50,340.42 L 202.24,339.13 L 202.91,337.67 L 203.52,336.07 L 204.06,334.33 L 204.54,332.45 L 204.96,330.45 L 205.33,328.35 L 205.63,326.15 L 205.89,323.86 L 206.09,321.49 L 206.24,319.05 L 206.35,316.55 L 206.41,314.01 L 206.43,311.42 L 206.41,308.81 L 206.35,306.17 L 206.25,303.51 L 206.11,300.85 L 205.94,298.18 L 205.74,295.51 L 205.50,292.86 L 205.24,290.21 L 204.94,287.59 L 204.62,284.98 L 204.26,282.40 L 203.89,279.85 L 203.48,277.33 L 203.05,274.84 L 202.59,272.39 L 202.11,269.97 L 201.61,267.59 L 201.08,265.26 L 200.54,262.96 L 199.97,260.70 L 199.38,258.49 L 198.77,256.31 L 198.14,254.18 L 197.50,252.09 L 196.83,250.05 L 196.15,248.04 L 195.45,246.08 L 194.73,244.15 L 194.00,242.27 L 193.26,240.43 L 192.49,238.63 L 191.72,236.87 L 190.93,235.15 L 190.13,233.46 L 189.32,231.81 L 188.50,230.20 L 187.66,228.63 L 186.82,227.09 L 185.97,225.59 L 185.10,224.12 L 184.23,222.69 L 183.36,221.29 L 182.47,219.93 L 181.58,218.59 L 180.68,217.29 L 179.77,216.02 L 178.86,214.78 L 177.95,213.57 L 177.03,212.40 L 176.11,211.25 L 175.18,210.13 L 174.25,209.05 L 173.32,207.99 L 172.38,206.96 L 171.44,205.96 L 170.51,204.99 L 169.57,204.04 L 168.62,203.13 L 167.68,202.24 L 166.74,201.39 L 165.80,200.56 L 164.86,199.76 L 163.92,198.99 L 162.98,198.25 L 162.04,197.54 L 161.10,196.85 L 160.16,196.20 L 159.23,195.58 L 158.29,194.99 L 157.36,194.42 L 156.44,193.89 L 155.51,193.40 L 154.59,192.93 L 153.67,192.50 L 152.76,192.10 L 151.85,191.73 L 150.94,191.40 L 150.04,191.11 L 149.15,190.86 L 148.26,190.64 L 147.38,190.46 L 146.50,190.32 L 145.63,190.22 L 144.77,190.17 L 143.92,190.15 L 143.07,190.19 L 142.24,190.27 L 141.41,190.40 L 140.60,190.57 L 139.80,190.80 L 139.01,191.08 L 138.24,191.42 L 137.48,191.82 L 136.73,192.27 L 136.01,192.78 L 135.30,193.36 L 134.61,194.01 L 133.95,194.72 L 133.30,195.50 L 132.68,196.36 L 132.09,197.29 L 131.53,198.30 L 131.00,199.39 L 130.49,200.56 L 130.03,201.83 L 129.60,203.18 L 129.21,204.63 L 128.86,206.17 L 128.56,207.81 L 128.31,209.55 L 128.11,211.40 L 127.96,213.36 L 127.87,215.43 L 127.84,217.61 L 127.87,219.91 L 127.97,222.33 L 128.14,224.87 L 128.39,227.54 L 128.71,230.33 L 129.12,233.24 L 129.61,236.28 L 130.18,239.45 L 130.85,242.75 L 131.61,246.17 L 132.47,249.72 L 133.43,253.39 L 134.48,257.17 L 135.64,261.07 L 136.91,265.09 L 138.27,269.20 L 139.75,273.41 L 141.32,277.70 L 143.00,282.08 L 144.78,286.52 L 146.66,291.01 L 148.63,295.54 L 150.69,300.09 L 152.83,304.65 L 155.05,309.20 L 157.35,313.72 L 159.70,318.18 L 162.11,322.58 L 164.57,326.89 L 167.06,331.08 L 169.57,335.14 L 172.10,339.04 L 174.62,342.75 L 177.14,346.27 L 179.63,349.56 L 182.09,352.60 L 184.51,355.39 L 186.87,357.90 L 189.17,360.11 L 191.39,362.02 L 193.53,363.62 L 195.58,364.89 L 197.53,365.84 L 199.38,366.45 L 201.12,366.73 L 202.75,366.69 L 204.28,366.32 L 205.69,365.64 L 206.99,364.66 L 208.18,363.38 L 209.26,361.83 L 210.24,360.02 L 211.12,357.96 L 211.90,355.67 L 212.60,353.17 L 213.20,350.49 L 213.72,347.63 L 214.16,344.62 L 214.54,341.48 L 214.84,338.23 L 215.08,334.88 L 215.26,331.46 L 215.39,327.97 L 215.47,324.43 L 215.50,320.86 L 215.49,317.28 L 215.44,313.68 L 215.35,310.09 L 215.23,306.51 L 215.07,302.95 L 214.88,299.43 L 214.66,295.94 L 214.41,292.49 L 214.13,289.09 L 213.83,285.75 L 213.50,282.46 L 213.14,279.23 L 212.76,276.06 L 212.36,272.95 L 211.93,269.90 L 211.48,266.92 L 211.00,264.01 L 210.51,261.16 L 209.99,258.38 L 209.46,255.66 L 208.90,253.00 L 208.32,250.41 L 207.73,247.87 L 207.11,245.40 L 206.48,242.99 L 205.83,240.63 L 205.16,238.33 L 204.48,236.09 L 203.78,233.89 L 203.07,231.75 L 202.35,229.66 L 201.61,227.62 L 200.86,225.62 L 200.09,223.67 L 199.32,221.76 L 198.54,219.90 L 197.74,218.07 L 196.94,216.29 L 196.14,214.54 L 195.32,212.83 L 194.50,211.15 L 193.67,209.51 L 192.84,207.90 L 192.01,206.32 L 191.17,204.77 L 190.33,203.25 L 189.49,201.76 L 188.64,200.29 L 187.80,198.86 L 186.96,197.44 L 186.11,196.05 L 185.27,194.69 L 184.43,193.35 L 183.59,192.02 L 182.75,190.72 L 181.92,189.44 L 181.09,188.18 L 180.26,186.94 L 179.44,185.72 L 178.62,184.51 L 177.81,183.32 L 177.00,182.15 L 176.20,181.00 L 175.41,179.85 L 174.62,178.73 L 173.84,177.62 L 173.06,176.52 L 172.29,175.43 L 171.53,174.36 L 170.78,173.30 L 170.04,172.26 L 169.30,171.22 L 168.57,170.20 L 167.85,169.19 L 167.14,168.18 L 166.44,167.19 L 165.75,166.21 L 165.07,165.24 L 164.40,164.28 L 163.73,163.32 L 163.08,162.38 L 162.44,161.45 L 161.80,160.52 L 161.18,159.60 L 160.57,158.69 L 159.97,157.78 L 159.38,156.89 L 158.80,156.00 L 158.24,155.12 L 157.68,154.24 L 157.14,153.37 L 156.61,152.51 L 156.09,151.65 L 155.58,150.80 L 155.09,149.95 L 154.61,149.11 L 154.14,148.28 L 153.69,147.45 L 153.25,146.62 L 152.83,145.80 L 152.42,144.98 L 152.02,144.17 L 151.64,143.36 L 151.28,142.56 L 150.93,141.76 L 150.60,140.96 L 150.28,140.17 L 149.99,139.38 L 149.71,138.59 L 149.44,137.81 L 149.20,137.03 L 148.98,136.25 L 148.78,135.47 L 148.59,134.70 L 148.43,133.93 L 148.30,133.17 L 148.18,132.40 L 148.09,131.64 L 148.02,130.88 L 147.98,130.13 L 147.97,129.38 L 147.99,128.63 L 148.03,127.88 L 148.10,127.14 L 148.21,126.40 L 148.35,125.67 L 148.52,124.94 L 148.72,124.22 L 148.97,123.50 L 149.25,122.79 L 149.58,122.08 L 149.95,121.38 L 150.36,120.69 L 150.82,120.01 L 151.33,119.33 L 151.88,118.67 L 152.50,118.02 L 153.17,117.38 L 153.90,116.76 L 154.69,116.15 L 155.55,115.57 L 156.47,115.00 L 157.47,114.45 L 158.55,113.93 L 159.70,113.43 L 160.94,112.97 L 162.27,112.53 L 163.69,112.14 L 165.21,111.78 L 166.83,111.46 L 168.56,111.19 L 170.40,110.97 L 172.35,110.81 L 174.44,110.70 L 176.65,110.66 L 178.99,110.70 L 181.48,110.81 L 184.12,111.00 L 186.91,111.28 L 189.86,111.66 L 192.97,112.14 L 196.26,112.73 L 199.73,113.45 L 203.38,114.28 L 207.23,115.26 L 211.26,116.37 L 215.50,117.64 L 219.93,119.06 L 224.57,120.65 L 229.42,122.41 L 234.48,124.36 L 239.74,126.49 L 245.21,128.81 L 250.87,131.33 L 256.73,134.05 L 262.77,136.97 L 268.98,140.10 L 275.35,143.42 L 281.87,146.95 L 288.50,150.67 L 295.24,154.58 L 302.05,158.66 L 308.90,162.91 L 315.76,167.30 L 322.60,171.83 L 329.37,176.46 L 336.04,181.18 L 342.56,185.96 L 348.88,190.77 L 354.97,195.59 L 360.76,200.38 L 366.23,205.11 L 371.31,209.74 L 375.97,214.26 L 380.18,218.63 L 383.88,222.82 L 387.06,226.80 L 389.69,230.55 L 391.73,234.06 L 393.19,237.31 L 394.06,240.28 L 394.33,242.96 L 394.01,245.37 L 393.12,247.48 L 391.67,249.32 L 389.69,250.89 L 387.21,252.20 L 384.26,253.27 L 380.89,254.10 L 377.12,254.73 L 373.01,255.17 L 368.60,255.43 L 363.92,255.55 L 359.03,255.53 L 353.96,255.40 L 348.75,255.17 L 343.43,254.87 L 338.05,254.50 L 332.63,254.07 L 327.21,253.61 L 321.80,253.12 L 316.43,252.60 L 311.12,252.07 L 305.89,251.53 L 300.74,250.99 L 295.71,250.45 L 290.78,249.90 L 285.98,249.36 L 281.30,248.83 L 276.76,248.30 L 272.35,247.78 L 268.07,247.26 L 263.93,246.74 L 259.93,246.23 L 256.06,245.72 L 252.32,245.21 L 248.71,244.70 L 245.23,244.20 L 241.87,243.69 L 238.63,243.18 L 235.51,242.67 L 232.49,242.15 L 229.59,241.63 L 226.78,241.11 L 224.08,240.59 L 221.47,240.06 L 218.96,239.53 L 216.53,238.99 L 214.18,238.45 L 211.92,237.91 L 209.73,237.37 L 207.61,236.83 L 205.56,236.28 L 203.58,235.74 L 201.66,235.20 L 199.80,234.66 L 197.99,234.12 L 196.24,233.59 L 194.55,233.06 L 192.90,232.54 L 191.30,232.02 L 189.74,231.51 L 188.23,231.02 L 186.75,230.53 L 185.32,230.06 L 183.92,229.59 L 182.56,229.15 L 181.24,228.71 L 179.94,228.30 L 178.68,227.90 L 177.45,227.52 L 176.25,227.16 L 175.08,226.82 L 173.93,226.51 L 172.81,226.22 L 171.72,225.95 L 170.65,225.71 L 169.61,225.49 L 168.59,225.31 L 167.59,225.15 L 166.62,225.03 L 165.67,224.94 L 164.74,224.88 L 163.84,224.85 L 162.96,224.86 L 162.10,224.91 L 161.26,225.00 L 160.45,225.12 L 159.66,225.29 L 158.89,225.50 L 158.15,225.75 L 157.43,226.04 L 156.74,226.38 L 156.07,226.77 L 155.42,227.21 L 154.81,227.70 L 154.22,228.23 L 153.65,228.82 L 153.12,229.46 L 152.61,230.16 L 152.13,230.91 L 151.69,231.72 L 151.27,232.59 L 150.89,233.52 L 150.54,234.50 L 150.23,235.55 L 149.96,236.66 L 149.72,237.83 L 149.52,239.06 L 149.36,240.36 L 149.24,241.72 L 149.16,243.14 L 149.13,244.63 L 149.14,246.19 L 149.19,247.81 L 149.29,249.49 L 149.44,251.24 L 149.64,253.05 L 149.89,254.92 L 150.18,256.85 L 150.53,258.85 L 150.93,260.89 L 151.38,263.00 L 151.89,265.15 L 152.44,267.36 L 153.05,269.61 L 153.72,271.90 L 154.43,274.24 L 155.19,276.60 L 156.01,279.00 L 156.87,281.42 L 157.78,283.86 L 158.74,286.31 L 159.75,288.76 L 160.79,291.22 L 161.88,293.67 L 163.00,296.11 L 164.16,298.52 L 165.35,300.90 L 166.57,303.25 L 167.82,305.54 L 169.08,307.79 L 170.37,309.97 L 171.67,312.08 L 172.97,314.11 L 174.28,316.05 L 175.60,317.90 L 176.91,319.65 L 178.21,321.29 L 179.50,322.81 L 180.78,324.21 L 182.03,325.48 L 183.26,326.61 L 184.47,327.61 L 185.64,328.47 L 186.79,329.18 L 187.89,329.75 L 188.96,330.17 L 189.98,330.44 L 190.96,330.56 L 191.90,330.54 L 192.78,330.36 L 193.62,330.05 L 194.41,329.59 L 195.16,329.00 L 195.85,328.27 L 196.49,327.41 L 197.08,326.43 L 197.62,325.34 L 198.12,324.13 L 198.56,322.81 L 198.96,321.40 L 199.31,319.89 L 199.61,318.30 L 199.87,316.63 L 200.09,314.89 L 200.26,313.08 L 200.40,311.22 L 200.49,309.30 L 200.54,307.34 L 200.56,305.34 L 200.54,303.30 L 200.49,301.24 L 200.40,299.16 L 200.28,297.05 L 200.12,294.94 L 199.94,292.82 L 199.72,290.70 L 199.48,288.57 L 199.21,286.45 L 198.91,284.34 L 198.59,282.24 L 198.24,280.15 L 197.86,278.08 L 197.46,276.03 L 197.04,274.00 L 196.60,271.99 L 196.13,270.01 L 195.64,268.05 L 195.13,266.12 L 194.61,264.22 L 194.06,262.35 L 193.49,260.51 L 192.91,258.71 L 192.31,256.93 L 191.69,255.18 L 191.05,253.47 L 190.40,251.80 L 189.74,250.15 L 189.06,248.54 L 188.37,246.96 L 187.66,245.42 L 186.94,243.91 L 186.21,242.44 L 185.47,241.00 L 184.71,239.59 L 183.95,238.22 L 183.17,236.88 L 182.39,235.58 L 181.60,234.31 L 180.80,233.07 L 179.99,231.87 L 179.18,230.70 L 178.36,229.57 L 177.53,228.46 L 176.70,227.40 L 175.86,226.36 L 175.02,225.36 L 174.18,224.39 L 173.33,223.46 L 172.48,222.56 L 171.62,221.69 L 170.77,220.86 L 169.91,220.06 L 169.06,219.30 L 168.20,218.57 L 167.34,217.88 L 166.48,217.22 L 165.63,216.60 L 164.78,216.01 L 163.92,215.46 L 163.08,214.95 L 162.23,214.47 L 161.39,214.03 L 160.55,213.64 L 159.72,213.28 L 158.90,212.96 L 158.08,212.68 L 157.26,212.44 L 156.46,212.25 L 155.66,212.09 L 154.87,211.99 L 154.09,211.93 L 153.33,211.91 L 152.57,211.94 L 151.83,212.02 L 151.09,212.15 L 150.38,212.33 L 149.67,212.56 L 148.99,212.85 L 148.32,213.19 L 147.67,213.59 L 147.03,214.05 L 146.42,214.56 L 145.83,215.14 L 145.26,215.77 L 144.72,216.48 L 144.20,217.25 L 143.71,218.08 L 143.25,218.99 L 142.82,219.96 L 142.42,221.01 L 142.06,222.13 L 141.73,223.33 L 141.44,224.60 L 141.19,225.96 L 140.98,227.39 L 140.81,228.91 L 140.69,230.50 L 140.62,232.19 L 140.59,233.95 L 140.62,235.81 L 140.70,237.75 L 140.83,239.78 L 141.03,241.89 L 141.28,244.09 L 141.60,246.38 L 141.97,248.76 L 142.41,251.21 L 142.92,253.76 L 143.50,256.38 L 144.14,259.08 L 144.85,261.86 L 145.63,264.71 L 146.49,267.63 L 147.41,270.62 L 148.40,273.66 L 149.47,276.75 L 150.60,279.89 L 151.80,283.07 L 153.06,286.28 L 154.39,289.51 L 155.78,292.76 L 157.22,296.00 L 158.72,299.24 L 160.28,302.46 L 161.87,305.65 L 163.51,308.80 L 165.18,311.90 L 166.89,314.92 L 168.62,317.87 L 170.36,320.72 L 172.12,323.47 L 173.89,326.10 L 175.65,328.60 L 177.41,330.95 L 179.15,333.15 L 180.88,335.19 L 182.57,337.06 L 184.24,338.74 L 185.86,340.23 L 187.44,341.52 L 188.97,342.61 L 190.45,343.49 L 191.88,344.16 L 193.24,344.62 L 194.54,344.87 L 195.77,344.90 L 196.93,344.73 L 198.03,344.35 L 199.05,343.78 L 200.00,343.00 L 200.89,342.04 L 201.70,340.91 L 202.44,339.59 L 203.12,338.12 L 203.73,336.50 L 204.28,334.73 L 204.76,332.83 L 205.18,330.81 L 205.55,328.69 L 205.85,326.46 L 206.11,324.14 L 206.31,321.75 L 206.47,319.29 L 206.57,316.77 L 206.63,314.20 L 206.65,311.59 L 206.63,308.95 L 206.57,306.28 L 206.47,303.61 L 206.33,300.92 L 206.16,298.23 L 205.95,295.54 L 205.72,292.86 L 205.45,290.20 L 205.15,287.55 L 204.83,284.93 L 204.47,282.33 L 204.09,279.77 L 203.69,277.23 L 203.25,274.72 L 202.80,272.26 L 202.32,269.83 L 201.81,267.44 L 201.29,265.08 L 200.74,262.77 L 200.17,260.51 L 199.58,258.28 L 198.97,256.09 L 198.34,253.95 L 197.69,251.85 L 197.02,249.80 L 196.34,247.78 L 195.64,245.81 L 194.92,243.88 L 194.19,241.99 L 193.44,240.14 L 192.68,238.33 L 191.90,236.56 L 191.12,234.83 L 190.31,233.14 L 189.50,231.49 L 188.68,229.87 L 187.84,228.29 L 187.00,226.74 L 186.14,225.23 L 185.28,223.76 L 184.41,222.32 L 183.53,220.91 L 182.64,219.54 L 181.75,218.20 L 180.85,216.89 L 179.94,215.61 L 179.03,214.37 L 178.11,213.15 L 177.19,211.97 L 176.27,210.81 L 175.34,209.69 L 174.41,208.59 L 173.48,207.52 L 172.54,206.49 L 171.60,205.48 L 170.66,204.50 L 169.72,203.54 L 168.78,202.62 L 167.84,201.72 L 166.89,200.86 L 165.95,200.02 L 165.01,199.21 L 164.06,198.43 L 163.12,197.67 L 162.18,196.95 L 161.24,196.25 L 160.30,195.59 L 159.37,194.95 L 158.43,194.34 L 157.50,193.77 L 156.57,193.22 L 155.64,192.71 L 154.72,192.22 L 153.80,191.77 L 152.88,191.36 L 151.97,190.97 L 151.06,190.62 L 150.16,190.31 L 149.26,190.03 L 148.37,189.79 L 147.48,189.59 L 146.60,189.43 L 145.72,189.30 L 144.86,189.22 L 144.00,189.18 L 143.14,189.19 L 142.30,189.24 L 141.47,189.34 L 140.65,189.48 L 139.84,189.68 L 139.04,189.93 L 138.25,190.23 L 137.48,190.59 L 136.72,191.00 L 135.98,191.48 L 135.26,192.01 L 134.56,192.62 L 133.87,193.28 L 133.21,194.02 L 132.57,194.83 L 131.96,195.71 L 131.37,196.67 L 130.82,197.71 L 130.29,198.83 L 129.80,200.04 L 129.34,201.33 L 128.92,202.72 L 128.54,204.20 L 128.20,205.79 L 127.91,207.47 L 127.67,209.25 L 127.48,211.14 L 127.35,213.15 L 127.27,215.26 L 127.26,217.50 L 127.31,219.85 L 127.43,222.32 L 127.63,224.92 L 127.90,227.64 L 128.25,230.49 L 128.68,233.46 L 129.20,236.57 L 129.80,239.80 L 130.50,243.17 L 131.30,246.66 L 132.19,250.28 L 133.19,254.02 L 134.29,257.88 L 135.49,261.86 L 136.80,265.94 L 138.21,270.13 L 139.73,274.42 L 141.36,278.79 L 143.09,283.24 L 144.92,287.75 L 146.84,292.31 L 148.87,296.90 L 150.98,301.52 L 153.18,306.14 L 155.45,310.75 L 157.80,315.31 L 160.20,319.83 L 162.66,324.27 L 165.16,328.60 L 167.70,332.82 L 170.25,336.89 L 172.81,340.79 L 175.37,344.50 L 177.92,348.00 L 180.44,351.27 L 182.92,354.29 L 185.36,357.03 L 187.73,359.49 L 190.04,361.64 L 192.26,363.48 L 194.40,365.00 L 196.44,366.18 L 198.39,367.03 L 200.22,367.55 L 201.95,367.73 L 203.57,367.57 L 205.07,367.09 L 206.46,366.30 L 207.74,365.20 L 208.90,363.81 L 209.96,362.14 L 210.91,360.21 L 211.76,358.04 L 212.52,355.64 L 213.18,353.04 L 213.76,350.25 L 214.26,347.30 L 214.68,344.20 L 215.03,340.98 L 215.31,337.65 L 215.53,334.22 L 215.70,330.73 L 215.81,327.18 L 215.87,323.58 L 215.89,319.96 L 215.86,316.33 L 215.80,312.69 L 215.70,309.06 L 215.56,305.45 L 215.39,301.87 L 215.19,298.32 L 214.96,294.81 L 214.71,291.34 L 214.42,287.93 L 214.11,284.58 L 213.77,281.28 L 213.41,278.04 L 213.03,274.87 L 212.62,271.76 L 212.19,268.72 L 211.73,265.74 L 211.25,262.83 L 210.76,259.99 L 210.24,257.21 L 209.70,254.49 L 209.14,251.84 L 208.56,249.26 L 207.96,246.73 L 207.34,244.27 L 206.71,241.87 L 206.06,239.52 L 205.39,237.23 L 204.70,234.99 L 204.01,232.81 L 203.29,230.68 L 202.57,228.59 L 201.83,226.56 L 201.08,224.57 L 200.32,222.63 L 199.55,220.73 L 198.77,218.87 L 197.98,217.05 L 197.18,215.27 L 196.38,213.53 L 195.56,211.83 L 194.75,210.16 L 193.93,208.52 L 193.10,206.91 L 192.27,205.34 L 191.44,203.80 L 190.61,202.28 L 189.77,200.79 L 188.94,199.33 L 188.10,197.90 L 187.26,196.49 L 186.43,195.10 L 185.60,193.73 L 184.77,192.39 L 183.94,191.07 L 183.11,189.77 L 182.29,188.49 L 181.48,187.23 L 180.66,185.99 L 179.86,184.76 L 179.05,183.56 L 178.26,182.37 L 177.47,181.19 L 176.68,180.03 L 175.91,178.89 L 175.14,177.76 L 174.37,176.64 L 173.62,175.54 L 172.87,174.45 L 172.13,173.37 L 171.41,172.30 L 170.68,171.25 L 169.97,170.21 L 169.27,169.18 L 168.58,168.16 L 167.90,167.15 L 167.22,166.15 L 166.56,165.15 L 165.91,164.17 L 165.27,163.20 L 164.64,162.24 L 164.02,161.28 L 163.41,160.33 L 162.82,159.39 L 162.24,158.46 L 161.67,157.54 L 161.11,156.62 L 160.56,155.71 L 160.03,154.81 L 159.51,153.91 L 159.01,153.02 L 158.52,152.13 L 158.04,151.25 L 157.58,150.38 L 157.13,149.51 L 156.70,148.64 L 156.28,147.79 L 155.88,146.93 L 155.49,146.08 L 155.13,145.24 L 154.78,144.40 L 154.44,143.56 L 154.13,142.73 L 153.83,141.90 L 153.56,141.08 L 153.30,140.26 L 153.07,139.44 L 152.85,138.63 L 152.66,137.82 L 152.49,137.01 L 152.35,136.21 L 152.22,135.41 L 152.13,134.62 L 152.06,133.83 L 152.01,133.04 L 152.00,132.26 L 152.01,131.48 L 152.06,130.71 L 152.14,129.94 L 152.25,129.18 L 152.39,128.42 L 152.57,127.66 L 152.79,126.92 L 153.04,126.18 L 153.34,125.45 L 153.68,124.72 L 154.07,124.01 L 154.50,123.30 L 154.98,122.61 L 155.51,121.92 L 156.10,121.25 L 156.74,120.60 L 157.44,119.95 L 158.20,119.33 L 159.03,118.73 L 159.93,118.14 L 160.89,117.58 L 161.94,117.04 L 163.06,116.53 L 164.26,116.05 L 165.55,115.61 L 166.93,115.19 L 168.41,114.82 L 169.98,114.49 L 171.66,114.21 L 173.45,113.98 L 175.36,113.80 L 177.39,113.68 L 179.54,113.63 L 181.82,113.64 L 184.24,113.73 L 186.80,113.90 L 189.52,114.16 L 192.38,114.52 L 195.41,114.97 L 198.60,115.53 L 201.96,116.21 L 205.50,117.01 L 209.22,117.93 L 213.13,119.00 L 217.22,120.21 L 221.51,121.56 L 225.99,123.08 L 230.67,124.77 L 235.55,126.62 L 240.62,128.66 L 245.88,130.87 L 251.33,133.28 L 256.96,135.87 L 262.77,138.66 L 268.74,141.64 L 274.86,144.81 L 281.11,148.17 L 287.47,151.71 L 293.93,155.43 L 300.46,159.32 L 307.03,163.36 L 313.61,167.54 L 320.16,171.85 L 326.66,176.27 L 333.06,180.77 L 339.33,185.33 L 345.41,189.92 L 351.27,194.53 L 356.87,199.11 L 362.16,203.64 L 367.10,208.10 L 371.65,212.45 L 375.76,216.67 L 379.42,220.72 L 382.59,224.59 L 385.23,228.25 L 387.34,231.69 L 388.89,234.88 L 389.89,237.82 L 390.32,240.49 L 390.19,242.90 L 389.52,245.04 L 388.31,246.92 L 386.60,248.54 L 384.40,249.91 L 381.74,251.04 L 378.67,251.96 L 375.21,252.66 L 371.41,253.18 L 367.31,253.53 L 362.93,253.72 L 358.33,253.78 L 353.54,253.72 L 348.60,253.56 L 343.54,253.31 L 338.40,252.99 L 333.20,252.61 L 327.99,252.18 L 322.77,251.72 L 317.57,251.22 L 312.42,250.71 L 307.33,250.17 L 302.32,249.63 L 297.39,249.08 L 292.57,248.53 L 287.85,247.97 L 283.24,247.42 L 278.76,246.86 L 274.40,246.31 L 270.16,245.76 L 266.05,245.21 L 262.07,244.66 L 258.22,244.11 L 254.49,243.56 L 250.88,243.01 L 247.39,242.45 L 244.02,241.90 L 240.77,241.34 L 237.63,240.77 L 234.59,240.21 L 231.66,239.64 L 228.83,239.06 L 226.10,238.48 L 223.46,237.90 L 220.91,237.31 L 218.44,236.71 L 216.06,236.12 L 213.75,235.52 L 211.52,234.92 L 209.36,234.31 L 207.27,233.70 L 205.24,233.10 L 203.27,232.49 L 201.37,231.89 L 199.52,231.28 L 197.72,230.68 L 195.98,230.08 L 194.28,229.49 L 192.63,228.91 L 191.02,228.33 L 189.46,227.76 L 187.94,227.19 L 186.45,226.64 L 185.00,226.10 L 183.59,225.58 L 182.21,225.06 L 180.86,224.57 L 179.55,224.08 L 178.26,223.62 L 177.00,223.17 L 175.77,222.75 L 174.57,222.34 L 173.39,221.96 L 172.24,221.60 L 171.11,221.26 L 170.00,220.95 L 168.92,220.67 L 167.86,220.41 L 166.82,220.18 L 165.81,219.99 L 164.81,219.82 L 163.84,219.69 L 162.88,219.59 L 161.95,219.53 L 161.04,219.50 L 160.15,219.51 L 159.28,219.56 L 158.43,219.66 L 157.61,219.79 L 156.80,219.96 L 156.02,220.19 L 155.26,220.45 L 154.52,220.77 L 153.81,221.13 L 153.12,221.54 L 152.45,222.00 L 151.82,222.52 L 151.20,223.09 L 150.62,223.72 L 150.06,224.40 L 149.54,225.15 L 149.04,225.95 L 148.58,226.81 L 148.15,227.74 L 147.75,228.73 L 147.38,229.79 L 147.06,230.91 L 146.77,232.10 L 146.52,233.36 L 146.31,234.69 L 146.15,236.09 L 146.02,237.56 L 145.95,239.10 L 145.92,240.72 L 145.93,242.41 L 146.00,244.17 L 146.12,246.01 L 146.29,247.91 L 146.51,249.89 L 146.79,251.94 L 147.12,254.06 L 147.51,256.25 L 147.96,258.51 L 148.46,260.83 L 149.02,263.21 L 149.65,265.65 L 150.33,268.14 L 151.07,270.69 L 151.87,273.29 L 152.73,275.92 L 153.65,278.59 L 154.62,281.30 L 155.65,284.03 L 156.74,286.77 L 157.87,289.53 L 159.05,292.29 L 160.28,295.05 L 161.56,297.79 L 162.87,300.51 L 164.22,303.20 L 165.60,305.84 L 167.01,308.43 L 168.45,310.97 L 169.90,313.43 L 171.37,315.81 L 172.85,318.10 L 174.33,320.29 L 175.82,322.37 L 177.30,324.34 L 178.77,326.17 L 180.22,327.87 L 181.65,329.43 L 183.06,330.84 L 184.44,332.09 L 185.79,333.18 L 187.09,334.11 L 188.36,334.87 L 189.58,335.46 L 190.76,335.87 L 191.88,336.12 L 192.96,336.19 L 193.98,336.09 L 194.94,335.83 L 195.85,335.40 L 196.70,334.81 L 197.49,334.06 L 198.23,333.16 L 198.91,332.12 L 199.53,330.94 L 200.09,329.63 L 200.61,328.20 L 201.06,326.65 L 201.47,325.00 L 201.82,323.25 L 202.12,321.40 L 202.38,319.48 L 202.58,317.48 L 202.74,315.41 L 202.86,313.29 L 202.94,311.11 L 202.97,308.89 L 202.97,306.64 L 202.93,304.35 L 202.85,302.04 L 202.74,299.72 L 202.59,297.38 L 202.41,295.04 L 202.20,292.69 L 201.96,290.35 L 201.69,288.02 L 201.39,285.70 L 201.06,283.39 L 200.71,281.10 L 200.33,278.83 L 199.92,276.59 L 199.49,274.37 L 199.04,272.17 L 198.57,270.01 L 198.07,267.88 L 197.55,265.78 L 197.01,263.71 L 196.45,261.67 L 195.87,259.68 L 195.27,257.71 L 194.65,255.78 L 194.01,253.89 L 193.36,252.04 L 192.69,250.22 L 192.01,248.44 L 191.31,246.69 L 190.59,244.98 L 189.86,243.31 L 189.12,241.68 L 188.36,240.08 L 187.60,238.51 L 186.82,236.99 L 186.03,235.50 L 185.22,234.04 L 184.41,232.62 L 183.59,231.23 L 182.76,229.88 L 181.92,228.56 L 181.08,227.27 L 180.23,226.02 L 179.37,224.81 L 178.50,223.62 L 177.63,222.47 L 176.75,221.35 L 175.87,220.27 L 174.98,219.21 L 174.10,218.19 L 173.20,217.21 L 172.31,216.25 L 171.41,215.33 L 170.51,214.44 L 169.61,213.58 L 168.71,212.75 L 167.80,211.96 L 166.90,211.20 L 166.00,210.48 L 165.09,209.78 L 164.19,209.12 L 163.29,208.50 L 162.40,207.91 L 161.50,207.35 L 160.61,206.83 L 159.72,206.35 L 158.83,205.90 L 157.95,205.49 L 157.08,205.12 L 156.21,204.79 L 155.34,204.49 L 154.48,204.24 L 153.63,204.03 L 152.79,203.86 L 151.95,203.73 L 151.12,203.65 L 150.31,203.61 L 149.50,203.62 L 148.70,203.67 L 147.92,203.78 L 147.14,203.93 L 146.39,204.14 L 145.64,204.40 L 144.91,204.72 L 144.20,205.09 L 143.51,205.52 L 142.83,206.01 L 142.18,206.56 L 141.55,207.18 L 140.94,207.86 L 140.35,208.61 L 139.80,209.43 L 139.26,210.32 L 138.76,211.28 L 138.29,212.32 L 137.86,213.44 L 137.46,214.64 L 137.09,215.92 L 136.77,217.29 L 136.48,218.74 L 136.25,220.28 L 136.05,221.91 L 135.91,223.64 L 135.82,225.45 L 135.78,227.37 L 135.79,229.38 L 135.87,231.49 L 136.00,233.70 L 136.20,236.01 L 136.47,238.42 L 136.80,240.94 L 137.21,243.55 L 137.69,246.27 L 138.24,249.09 L 138.87,252.00 L 139.58,255.01 L 140.37,258.11 L 141.24,261.31 L 142.19,264.58 L 143.23,267.94 L 144.34,271.38 L 145.54,274.88 L 146.82,278.45 L 148.18,282.07 L 149.62,285.73 L 151.14,289.43 L 152.73,293.15 L 154.39,296.88 L 156.11,300.62 L 157.90,304.33 L 159.74,308.03 L 161.63,311.67 L 163.57,315.26 L 165.54,318.78 L 167.55,322.21 L 169.57,325.53 L 171.61,328.73 L 173.66,331.80 L 175.70,334.71 L 177.74,337.45 L 179.75,340.01 L 181.74,342.38 L 183.70,344.54 L 185.61,346.47 L 187.47,348.18 L 189.28,349.65 L 191.03,350.88 L 192.71,351.86 L 194.31,352.58 L 195.85,353.05 L 197.30,353.27 L 198.67,353.23 L 199.96,352.95 L 201.16,352.42 L 202.28,351.66 L 203.32,350.66 L 204.27,349.45 L 205.13,348.03 L 205.92,346.42 L 206.63,344.62 L 207.27,342.65 L 207.83,340.52 L 208.32,338.25 L 208.75,335.84 L 209.11,333.32 L 209.41,330.70 L 209.65,327.98 L 209.84,325.19 L 209.97,322.33 L 210.06,319.41 L 210.10,316.46 L 210.10,313.47 L 210.05,310.46 L 209.97,307.43 L 209.85,304.40 L 209.69,301.38 L 209.50,298.36 L 209.28,295.36 L 209.02,292.38 L 208.74,289.43 L 208.42,286.50 L 208.08,283.61 L 207.71,280.76 L 207.31,277.96 L 206.89,275.19 L 206.44,272.47 L 205.97,269.79 L 205.48,267.17 L 204.96,264.59 L 204.42,262.06 L 203.86,259.58 L 203.27,257.15 L 202.67,254.77 L 202.05,252.44 L 201.41,250.16 L 200.75,247.93 L 200.07,245.75 L 199.37,243.61 L 198.66,241.52 L 197.93,239.48 L 197.19,237.48 L 196.43,235.53 L 195.65,233.62 L 194.87,231.75 L 194.07,229.92 L 193.26,228.13 L 192.43,226.38 L 191.60,224.67 L 190.76,223.00 L 189.90,221.37 L 189.04,219.77 L 188.17,218.20 L 187.29,216.67 L 186.41,215.17 L 185.52,213.70 L 184.62,212.27 L 183.72,210.86 L 182.81,209.49 L 181.90,208.14 L 180.98,206.82 L 180.06,205.53 L 179.14,204.27 L 178.21,203.04 L 177.28,201.83 L 176.35,200.64 L 175.42,199.49 L 174.49,198.35 L 173.55,197.24 L 172.62,196.16 L 171.69,195.10 L 170.75,194.06 L 169.82,193.04 L 168.88,192.05 L 167.95,191.08 L 167.02,190.13 L 166.08,189.21 L 165.15,188.30 L 164.22,187.42 L 163.30,186.56 L 162.37,185.72 L 161.44,184.91 L 160.52,184.11 L 159.60,183.34 L 158.68,182.59 L 157.76,181.86 L 156.84,181.15 L 155.93,180.47 L 155.02,179.81 L 154.11,179.17 L 153.20,178.55 L 152.29,177.96 L 151.39,177.39 L 150.49,176.85 L 149.59,176.33 L 148.70,175.83 L 147.80,175.36 L 146.91,174.91 L 146.02,174.50 L 145.13,174.10 L 144.25,173.74 L 143.37,173.41 L 142.49,173.10 L 141.62,172.82 L 140.75,172.58 L 139.88,172.37 L 139.01,172.19 L 138.15,172.04 L 137.29,171.93 L 136.44,171.86 L 135.59,171.82 L 134.75,171.82 L 133.91,171.87 L 133.08,171.95 L 132.26,172.08 L 131.44,172.26 L 130.63,172.48 L 129.83,172.75 L 129.04,173.07 L 128.26,173.45 L 127.49,173.88 L 126.73,174.37 L 125.98,174.92 L 125.25,175.53 L 124.54,176.21 L 123.84,176.96 L 123.16,177.78 L 122.50,178.68 L 121.87,179.65 L 121.26,180.71 L 120.68,181.85 L 120.12,183.08 L 119.60,184.40 L 119.11,185.82 L 118.66,187.35 L 118.25,188.98 L 117.89,190.71 L 117.57,192.57 L 117.30,194.54 L 117.09,196.63 L 116.94,198.86 L 116.85,201.21 L 116.83,203.71 L 116.88,206.34 L 117.00,209.12 L 117.21,212.05 L 117.51,215.14 L 117.90,218.38 L 118.38,221.79 L 118.97,225.35 L 119.66,229.09 L 120.46,232.99 L 121.39,237.06 L 122.43,241.29 L 123.60,245.69 L 124.90,250.26 L 126.33,254.99 L 127.89,259.87 L 129.59,264.89 L 131.43,270.06 L 133.41,275.36 L 135.52,280.78 L 137.77,286.30 L 140.15,291.90 L 142.65,297.58 L 145.28,303.30 L 148.03,309.05 L 150.88,314.79 L 153.82,320.52 L 156.85,326.19 L 159.95,331.77 L 163.10,337.24 L 166.30,342.56 L 169.53,347.70 L 172.76,352.62 L 175.99,357.30 L 179.19,361.70 L 182.35,365.79 L 185.45,369.55 L 188.47,372.93 L 191.40,375.93 L 194.23,378.52 L 196.93,380.69 L 199.51,382.42 L 201.95,383.70 L 204.24,384.53 L 206.39,384.91 L 208.38,384.85 L 210.21,384.34 L 211.89,383.41 L 213.41,382.08 L 214.79,380.35 L 216.02,378.26 L 217.11,375.83 L 218.08,373.08 L 218.92,370.04 L 219.65,366.74 L 220.27,363.21 L 220.80,359.49 L 221.24,355.59 L 221.60,351.54 L 221.89,347.38 L 222.11,343.12 L 222.28,338.80 L 222.40,334.43 L 222.46,330.03 L 222.49,325.63 L 222.48,321.23 L 222.44,316.86 L 222.37,312.52 L 222.26,308.23 L 222.14,304.01 L 221.99,299.84 L 221.81,295.75 L 221.61,291.74 L 221.40,287.82 L 221.16,283.98 L 220.90,280.23 L 220.62,276.57 L 220.32,273.00 L 220.00,269.53 L 219.66,266.14 L 219.31,262.85 L 218.93,259.65 L 218.54,256.54 L 218.12,253.51 L 217.69,250.57 L 217.24,247.72 L 216.77,244.94 L 216.29,242.24 L 215.78,239.61 L 215.27,237.06 L 214.74,234.58 L 214.19,232.17 L 213.63,229.82 L 213.05,227.54 L 212.47,225.31 L 211.87,223.14 L 211.27,221.03 L 210.65,218.97 L 210.03,216.97 L 209.40,215.01 L 208.76,213.10 L 208.12,211.23 L 207.47,209.41 L 206.82,207.62 L 206.17,205.88 L 205.52,204.17 L 204.87,202.50 L 204.22,200.86 L 203.57,199.26 L 202.92,197.69 L 202.28,196.15 L 201.65,194.63 L 201.02,193.15 L 200.40,191.69 L 199.78,190.26 L 199.18,188.85 L 198.58,187.47 L 198.00,186.10 L 197.43,184.76 L 196.87,183.44 L 196.32,182.14 L 195.79,180.86 L 195.28,179.60 L 194.78,178.36 L 194.30,177.14 L 193.84,175.93 L 193.39,174.74 L 192.97,173.57 L 192.57,172.41 L 192.19,171.27 L 191.83,170.14 L 191.50,169.03 L 191.19,167.93 L 190.90,166.85 L 190.65,165.79 L 190.42,164.74 L 190.22,163.70 L 190.05,162.68 L 189.92,161.67 L 189.81,160.68 L 189.74,159.71 L 189.70,158.75 L 189.70,157.80 L 189.74,156.87 L 189.82,155.96 L 189.93,155.07 L 190.09,154.19 L 190.29,153.34 L 190.54,152.50 L 190.83,151.68 L 191.18,150.88 L 191.57,150.11 L 192.01,149.36 L 192.51,148.63 L 193.06,147.93 L 193.67,147.25 L 194.34,146.60 L 195.07,145.98 L 195.87,145.39 L 196.73,144.84 L 197.67,144.31 L 198.67,143.83 L 199.75,143.38 L 200.90,142.98 L 202.13,142.62 L 203.44,142.30 L 204.84,142.03 L 206.32,141.81 L 207.89,141.65 L 209.55,141.54 L 211.31,141.49 L 213.16,141.50 L 215.10,141.58 L 217.15,141.73 L 219.31,141.94 L 221.56,142.24 L 223.92,142.61 L 226.39,143.06 L 228.97,143.60 L 231.66,144.23 L 234.45,144.94 L 237.36,145.75 L 240.37,146.66 L 243.49,147.67 L 246.72,148.78 L 250.05,149.99 L 253.48,151.31 L 257.01,152.73 L 260.63,154.26 L 264.33,155.90 L 268.12,157.64 L 271.97,159.49 L 275.89,161.44 L 279.86,163.49 L 283.87,165.64 L 287.92,167.88 L 291.98,170.20 L 296.04,172.61 L 300.09,175.10 L 304.11,177.65 L 308.09,180.25 L 312.00,182.91 L 315.83,185.60 L 319.56,188.32 L 323.17,191.06 L 326.65,193.80 L 329.96,196.53 L 333.10,199.24 L 336.05,201.92 L 338.79,204.55 L 341.30,207.13 L 343.56,209.63 L 345.58,212.05 L 347.32,214.39 L 348.79,216.62 L 349.98,218.75 L 350.87,220.76 L 351.48,222.65 L 351.78,224.42 L 351.80,226.05 L 351.53,227.56 L 350.97,228.93 L 350.14,230.17 L 349.04,231.28 L 347.69,232.27 L 346.09,233.12 L 344.26,233.86 L 342.22,234.48 L 339.98,234.99 L 337.55,235.39 L 334.96,235.70 L 332.22,235.91 L 329.35,236.03 L 326.37,236.07 L 323.28,236.04 L 320.11,235.93 L 316.87,235.77 L 313.58,235.54 L 310.24,235.26 L 306.88,234.93 L 303.50,234.56 L 300.11,234.14 L 296.73,233.69 L 293.36,233.20 L 290.01,232.67 L 286.69,232.12 L 283.40,231.55 L 280.15,230.94 L 276.95,230.31 L 273.79,229.66 L 270.69,228.99 L 267.64,228.30 L 264.65,227.58 L 261.72,226.85 L 258.85,226.11 L 256.04,225.34 L 253.29,224.56 L 250.61,223.76 L 247.98,222.95 L 245.42,222.12 L 242.92,221.28 L 240.47,220.43 L 238.09,219.56 L 235.76,218.68 L 233.49,217.78 L 231.28,216.88 L 229.12,215.96 L 227.02,215.04 L 224.96,214.10 L 222.96,213.15 L 221.01,212.20 L 219.10,211.24 L 217.24,210.27 L 215.42,209.29 L 213.65,208.30 L 211.92,207.31 L 210.22,206.31 L 208.57,205.31 L 206.96,204.31 L 205.38,203.30 L 203.83,202.29 L 202.32,201.27 L 200.85,200.25 L 199.40,199.23 L 197.99,198.22 L 196.60,197.20 L 195.24,196.17 L 193.91,195.16 L 192.61,194.14 L 191.33,193.12 L 190.08,192.10 L 188.85,191.09 L 187.65,190.08 L 186.46,189.07 L 185.30,188.07 L 184.16,187.06 L 183.04,186.07 L 181.94,185.07 L 180.86,184.08 L 179.79,183.10 L 178.75,182.12 L 177.72,181.15 L 176.71,180.18 L 175.71,179.21 L 174.73,178.26 L 173.77,177.30 L 172.82,176.36 L 171.89,175.42 L 170.97,174.48 L 170.06,173.56 L 169.17,172.64 L 168.29,171.72 L 167.42,170.81 L 166.57,169.91 L 165.73,169.02 L 164.90,168.13 L 164.09,167.25 L 163.28,166.38 L 162.49,165.51 L 161.71,164.65 L 160.93,163.79 L 160.17,162.95 L 159.43,162.11 L 158.69,161.27 L 157.96,160.45 L 157.24,159.63 L 156.53,158.81 L 155.84,158.01 L 155.15,157.21 L 154.47,156.41 L 153.80,155.62 L 153.14,154.84 L 152.49,154.07 L 151.85,153.30" stroke-width="0.8" opacity="0.88" />
  </g>
</svg>